<mxfile host="app.diagrams.net" agent="Mozilla/5.0 (Windows NT 10.0; Win64; x64) AppleWebKit/537.36 (KHTML, like Gecko) Chrome/131.0.0.0 Safari/537.36" version="24.8.6">
  <diagram name="Page-1" id="c29rz0RzxSeFN2Fo8Rub">
    <mxGraphModel grid="0" page="1" gridSize="10" guides="1" tooltips="1" connect="1" arrows="1" fold="1" pageScale="1" pageWidth="827" pageHeight="1169" math="0" shadow="0">
      <root>
        <mxCell id="0" />
        <mxCell id="1" parent="0" />
        <mxCell id="_qHGbEw9CiUlLCKPYibO-5" value="&lt;p style=&quot;margin:0px;margin-top:4px;text-align:center;&quot;&gt;&lt;b&gt;Device&lt;/b&gt;&lt;/p&gt;&lt;hr size=&quot;1&quot; style=&quot;border-style:solid;&quot;&gt;&lt;p style=&quot;margin:0px;margin-left:4px;&quot;&gt;&amp;nbsp;&lt;span style=&quot;background-color: initial;&quot;&gt;- deviceName: String&lt;/span&gt;&lt;/p&gt;&lt;p style=&quot;margin:0px;margin-left:4px;&quot;&gt;&lt;span style=&quot;background-color: initial;&quot;&gt;- deviceID: Integer&lt;/span&gt;&lt;/p&gt;&lt;p style=&quot;margin:0px;margin-left:4px;&quot;&gt;&lt;span style=&quot;background-color: initial;&quot;&gt;- usage: Integer&lt;/span&gt;&lt;/p&gt;&lt;p style=&quot;margin:0px;margin-left:4px;&quot;&gt;&lt;span style=&quot;background-color: initial;&quot;&gt;- duration: Integer&lt;/span&gt;&lt;/p&gt;&lt;p style=&quot;margin:0px;margin-left:4px;&quot;&gt;&lt;span style=&quot;background-color: initial;&quot;&gt;- powerUsage: int&lt;/span&gt;&lt;/p&gt;&lt;p style=&quot;margin:0px;margin-left:4px;&quot;&gt;&lt;span style=&quot;background-color: initial;&quot;&gt;- userID: int&lt;/span&gt;&lt;/p&gt;&lt;hr size=&quot;1&quot; style=&quot;border-style:solid;&quot;&gt;&lt;p style=&quot;margin:0px;margin-left:4px;&quot;&gt;&lt;span style=&quot;background-color: initial;&quot;&gt;+ getDeviceName(): String&lt;/span&gt;&lt;/p&gt;&lt;p style=&quot;margin:0px;margin-left:4px;&quot;&gt;&lt;span style=&quot;background-color: initial;&quot;&gt;+ setDeviceName(String deviceName): void&lt;/span&gt;&lt;/p&gt;&lt;p style=&quot;margin:0px;margin-left:4px;&quot;&gt;&lt;span style=&quot;background-color: initial;&quot;&gt;+ getDeviceID(): Integer&lt;/span&gt;&lt;/p&gt;&lt;p style=&quot;margin:0px;margin-left:4px;&quot;&gt;&lt;span style=&quot;background-color: initial;&quot;&gt;+ setDeviceID(Integer deviceID): void&lt;/span&gt;&lt;/p&gt;&lt;p style=&quot;margin:0px;margin-left:4px;&quot;&gt;&lt;span style=&quot;background-color: initial;&quot;&gt;+ getUsage(): Integer&lt;/span&gt;&lt;/p&gt;&lt;p style=&quot;margin:0px;margin-left:4px;&quot;&gt;&lt;span style=&quot;background-color: initial;&quot;&gt;+ setUsage(Integer usage): void&lt;/span&gt;&lt;/p&gt;&lt;p style=&quot;margin:0px;margin-left:4px;&quot;&gt;&lt;span style=&quot;background-color: initial;&quot;&gt;+ getDuration(): Integer&lt;/span&gt;&lt;/p&gt;&lt;p style=&quot;margin:0px;margin-left:4px;&quot;&gt;&lt;span style=&quot;background-color: initial;&quot;&gt;+ setDuration(Integer duration): void&lt;/span&gt;&lt;/p&gt;&lt;p style=&quot;margin:0px;margin-left:4px;&quot;&gt;&lt;span style=&quot;background-color: initial;&quot;&gt;+ getUserID(): Integer&lt;/span&gt;&lt;/p&gt;&lt;p style=&quot;margin:0px;margin-left:4px;&quot;&gt;&lt;span style=&quot;background-color: initial;&quot;&gt;+ setUserID(Integer userID): void&lt;/span&gt;&lt;/p&gt;&lt;p style=&quot;margin:0px;margin-left:4px;&quot;&gt;&lt;span style=&quot;background-color: initial;&quot;&gt;+ getDurationHour(): Integer&lt;/span&gt;&lt;/p&gt;&lt;p style=&quot;margin:0px;margin-left:4px;&quot;&gt;&lt;span style=&quot;background-color: initial;&quot;&gt;+ getDurationMin(): Integer&lt;/span&gt;&lt;/p&gt;" style="verticalAlign=top;align=left;overflow=fill;html=1;whiteSpace=wrap;fillColor=#fff2cc;strokeColor=#d6b656;" vertex="1" parent="1">
          <mxGeometry x="626" y="346" width="246" height="320" as="geometry" />
        </mxCell>
        <mxCell id="_qHGbEw9CiUlLCKPYibO-9" value="&lt;p style=&quot;margin:0px;margin-top:4px;text-align:center;&quot;&gt;&lt;b&gt;User&lt;/b&gt;&lt;/p&gt;&lt;hr size=&quot;1&quot; style=&quot;border-style:solid;&quot;&gt;&lt;p style=&quot;margin:0px;margin-left:4px;&quot;&gt;&lt;span style=&quot;background-color: initial;&quot;&gt;- userID: Integer&lt;/span&gt;&lt;/p&gt;&lt;p style=&quot;margin:0px;margin-left:4px;&quot;&gt;&lt;span style=&quot;background-color: initial;&quot;&gt;- username: String&lt;/span&gt;&lt;/p&gt;&lt;p style=&quot;margin:0px;margin-left:4px;&quot;&gt;&lt;span style=&quot;background-color: initial;&quot;&gt;- password: String&lt;/span&gt;&lt;/p&gt;&lt;p style=&quot;margin:0px;margin-left:4px;&quot;&gt;&lt;span style=&quot;background-color: initial;&quot;&gt;- name: String&lt;/span&gt;&lt;/p&gt;&lt;p style=&quot;margin:0px;margin-left:4px;&quot;&gt;&lt;span style=&quot;background-color: initial;&quot;&gt;- email: String&lt;/span&gt;&lt;/p&gt;&lt;p style=&quot;margin:0px;margin-left:4px;&quot;&gt;&lt;span style=&quot;background-color: initial;&quot;&gt;- isAdmin: int&lt;/span&gt;&lt;/p&gt;&lt;p style=&quot;margin:0px;margin-left:4px;&quot;&gt;&lt;span style=&quot;background-color: initial;&quot;&gt;- contactNumber: String&lt;/span&gt;&lt;/p&gt;&lt;p style=&quot;margin:0px;margin-left:4px;&quot;&gt;&lt;span style=&quot;background-color: initial;&quot;&gt;- address: String&lt;/span&gt;&lt;/p&gt;&lt;hr size=&quot;1&quot; style=&quot;border-style:solid;&quot;&gt;&lt;p style=&quot;margin:0px;margin-left:4px;&quot;&gt;&lt;span style=&quot;background-color: initial;&quot;&gt;+ getUserID(): Integer&lt;/span&gt;&lt;/p&gt;&lt;p style=&quot;margin:0px;margin-left:4px;&quot;&gt;&lt;span style=&quot;background-color: initial;&quot;&gt;+ setUserID(Integer userID): void&lt;/span&gt;&lt;/p&gt;&lt;p style=&quot;margin:0px;margin-left:4px;&quot;&gt;&lt;span style=&quot;background-color: initial;&quot;&gt;+ getUsername(): String&lt;/span&gt;&lt;/p&gt;&lt;p style=&quot;margin:0px;margin-left:4px;&quot;&gt;&lt;span style=&quot;background-color: initial;&quot;&gt;+ setUsername(String username): void&lt;/span&gt;&lt;/p&gt;&lt;p style=&quot;margin:0px;margin-left:4px;&quot;&gt;&lt;span style=&quot;background-color: initial;&quot;&gt;+ getName(): String&lt;/span&gt;&lt;/p&gt;&lt;p style=&quot;margin:0px;margin-left:4px;&quot;&gt;&lt;span style=&quot;background-color: initial;&quot;&gt;+ setName(String name): void&lt;/span&gt;&lt;/p&gt;&lt;p style=&quot;margin:0px;margin-left:4px;&quot;&gt;&lt;span style=&quot;background-color: initial;&quot;&gt;+ getEmail(): String&lt;/span&gt;&lt;/p&gt;&lt;p style=&quot;margin:0px;margin-left:4px;&quot;&gt;&lt;span style=&quot;background-color: initial;&quot;&gt;+ setEmail(String email): void&lt;/span&gt;&lt;/p&gt;&lt;p style=&quot;margin:0px;margin-left:4px;&quot;&gt;&lt;span style=&quot;background-color: initial;&quot;&gt;+ getContactNumber(): String&lt;/span&gt;&lt;/p&gt;&lt;p style=&quot;margin:0px;margin-left:4px;&quot;&gt;&lt;span style=&quot;background-color: initial;&quot;&gt;+ setContactNumber(String contactNumber): void&lt;/span&gt;&lt;/p&gt;&lt;p style=&quot;margin:0px;margin-left:4px;&quot;&gt;&lt;span style=&quot;background-color: initial;&quot;&gt;+ getPassword(): String&lt;/span&gt;&lt;/p&gt;&lt;p style=&quot;margin:0px;margin-left:4px;&quot;&gt;&lt;span style=&quot;background-color: initial;&quot;&gt;+ setPassword(String password): void&lt;/span&gt;&lt;/p&gt;&lt;p style=&quot;margin:0px;margin-left:4px;&quot;&gt;&lt;span style=&quot;background-color: initial;&quot;&gt;+ getIsAdmin(): Integer&lt;/span&gt;&lt;/p&gt;&lt;p style=&quot;margin:0px;margin-left:4px;&quot;&gt;&lt;span style=&quot;background-color: initial;&quot;&gt;+ setIsAdmin(Integer isAdmin): void&lt;/span&gt;&lt;/p&gt;&lt;p style=&quot;margin:0px;margin-left:4px;&quot;&gt;&lt;span style=&quot;background-color: initial;&quot;&gt;+ getAddress(): String&lt;/span&gt;&lt;/p&gt;&lt;p style=&quot;margin:0px;margin-left:4px;&quot;&gt;&lt;span style=&quot;background-color: initial;&quot;&gt;+ setAddress(String address): void&lt;/span&gt;&lt;/p&gt;" style="verticalAlign=top;align=left;overflow=fill;html=1;whiteSpace=wrap;fillColor=#fff2cc;strokeColor=#d6b656;" vertex="1" parent="1">
          <mxGeometry x="232" y="250" width="300" height="424" as="geometry" />
        </mxCell>
        <mxCell id="8NUegigZWreO3T-o1tuZ-1" value="&lt;p style=&quot;margin: 4px 0px 0px; text-align: center;&quot;&gt;&lt;span style=&quot;background-color: initial; text-align: left;&quot;&gt;&lt;b&gt;AdminLoginActivity&lt;/b&gt;&lt;/span&gt;&lt;span style=&quot;background-color: initial; text-align: left;&quot;&gt;&lt;b&gt;&amp;nbsp;&lt;/b&gt;&lt;/span&gt;&lt;/p&gt;&lt;hr size=&quot;1&quot; style=&quot;border-style:solid;&quot;&gt;&lt;p style=&quot;margin:0px;margin-left:4px;&quot;&gt;&lt;span style=&quot;background-color: initial;&quot;&gt;- etAdminUsername: EditText&lt;/span&gt;&lt;/p&gt;&lt;p style=&quot;margin:0px;margin-left:4px;&quot;&gt;- etAdminPassword: EditText&lt;/p&gt;&lt;p style=&quot;margin:0px;margin-left:4px;&quot;&gt;- adminLoginButton: Button&lt;/p&gt;&lt;p style=&quot;margin:0px;margin-left:4px;&quot;&gt;- registerAdminButton: Button&lt;/p&gt;&lt;p style=&quot;margin:0px;margin-left:4px;&quot;&gt;- backButton: Button&lt;/p&gt;&lt;p style=&quot;margin:0px;margin-left:4px;&quot;&gt;- btnAdminForgotPassword: Button&lt;/p&gt;&lt;p style=&quot;margin:0px;margin-left:4px;&quot;&gt;- adminLoginLabel: TextView&lt;/p&gt;&lt;p style=&quot;margin:0px;margin-left:4px;&quot;&gt;- dbHelper: DatabaseHelper&lt;/p&gt;&lt;div&gt;&lt;br&gt;&lt;/div&gt;&lt;hr size=&quot;1&quot; style=&quot;border-style:solid;&quot;&gt;&lt;p style=&quot;margin:0px;margin-left:4px;&quot;&gt;&lt;span style=&quot;background-color: initial;&quot;&gt;+ onCreate(Bundle savedInstanceState): void&lt;/span&gt;&lt;/p&gt;" style="verticalAlign=top;align=left;overflow=fill;html=1;whiteSpace=wrap;fillColor=#e1d5e7;strokeColor=#9673a6;" vertex="1" parent="1">
          <mxGeometry x="2033" y="-200" width="300" height="213" as="geometry" />
        </mxCell>
        <mxCell id="8NUegigZWreO3T-o1tuZ-2" value="&lt;p style=&quot;margin:0px;margin-top:4px;text-align:center;&quot;&gt;&lt;span style=&quot;background-color: initial; text-align: left;&quot;&gt;&lt;b&gt;AdminForgotPasswordActivity&amp;nbsp;&lt;/b&gt;&lt;/span&gt;&lt;/p&gt;&lt;hr size=&quot;1&quot; style=&quot;border-style:solid;&quot;&gt;&lt;p style=&quot;margin:0px;margin-left:4px;&quot;&gt;&lt;span style=&quot;background-color: initial;&quot;&gt;- etUsername: EditText&lt;/span&gt;&lt;/p&gt;&lt;p style=&quot;margin:0px;margin-left:4px;&quot;&gt;- etEmail: EditText&lt;/p&gt;&lt;p style=&quot;margin:0px;margin-left:4px;&quot;&gt;- btnValidateInfo: Button&lt;/p&gt;&lt;p style=&quot;margin:0px;margin-left:4px;&quot;&gt;- btnBack: Button&lt;/p&gt;&lt;p style=&quot;margin:0px;margin-left:4px;&quot;&gt;- dbHelper: DatabaseHelper&lt;/p&gt;&lt;div&gt;&lt;br&gt;&lt;/div&gt;&lt;hr size=&quot;1&quot; style=&quot;border-style:solid;&quot;&gt;&lt;p style=&quot;margin:0px;margin-left:4px;&quot;&gt;+ onCreate(&lt;span style=&quot;background-color: initial;&quot;&gt;savedInstanceState:&amp;nbsp;&lt;/span&gt;&lt;span style=&quot;background-color: initial;&quot;&gt;Bundle&lt;/span&gt;): void&lt;/p&gt;" style="verticalAlign=top;align=left;overflow=fill;html=1;whiteSpace=wrap;fillColor=#e1d5e7;strokeColor=#9673a6;" vertex="1" parent="1">
          <mxGeometry x="2680" y="166" width="300" height="159" as="geometry" />
        </mxCell>
        <mxCell id="8NUegigZWreO3T-o1tuZ-3" value="&lt;p style=&quot;margin: 4px 0px 0px; text-align: center;&quot;&gt;&lt;span style=&quot;background-color: initial; text-align: left;&quot;&gt;&lt;b&gt;AdminRegisterActivity&lt;/b&gt;&lt;/span&gt;&lt;span style=&quot;background-color: initial; text-align: left;&quot;&gt;&lt;b&gt;&amp;nbsp;&lt;/b&gt;&lt;/span&gt;&lt;/p&gt;&lt;hr size=&quot;1&quot; style=&quot;border-style:solid;&quot;&gt;&lt;p style=&quot;margin:0px;margin-left:4px;&quot;&gt;&lt;span style=&quot;background-color: initial;&quot;&gt;-&lt;/span&gt;&lt;span style=&quot;background-color: initial;&quot;&gt;etAdminUsername: EditText&lt;/span&gt;&lt;/p&gt;&lt;p style=&quot;margin:0px;margin-left:4px;&quot;&gt;- etAdminPassword: EditText&lt;/p&gt;&lt;p style=&quot;margin:0px;margin-left:4px;&quot;&gt;- etAdminName: EditText&lt;/p&gt;&lt;p style=&quot;margin:0px;margin-left:4px;&quot;&gt;- etAdminEmail: EditText&lt;/p&gt;&lt;p style=&quot;margin:0px;margin-left:4px;&quot;&gt;- registerAdminButton: Button&lt;/p&gt;&lt;p style=&quot;margin:0px;margin-left:4px;&quot;&gt;- btnBack: Button&lt;/p&gt;&lt;p style=&quot;margin:0px;margin-left:4px;&quot;&gt;- dbHelper: DatabaseHelper&lt;/p&gt;&lt;div&gt;&lt;br&gt;&lt;/div&gt;&lt;hr size=&quot;1&quot; style=&quot;border-style:solid;&quot;&gt;&lt;p style=&quot;margin:0px;margin-left:4px;&quot;&gt;+ onCreate(&lt;span style=&quot;background-color: initial;&quot;&gt;savedInstanceState:&amp;nbsp;&lt;/span&gt;&lt;span style=&quot;background-color: initial;&quot;&gt;Bundle&lt;/span&gt;): void&lt;/p&gt;" style="verticalAlign=top;align=left;overflow=fill;html=1;whiteSpace=wrap;fillColor=#e1d5e7;strokeColor=#9673a6;" vertex="1" parent="1">
          <mxGeometry x="1580" y="157" width="300" height="182" as="geometry" />
        </mxCell>
        <mxCell id="8NUegigZWreO3T-o1tuZ-4" value="&lt;p style=&quot;margin: 4px 0px 0px; text-align: center;&quot;&gt;&lt;span style=&quot;background-color: initial; text-align: left;&quot;&gt;&lt;b&gt;AdminDashboardActivity&lt;/b&gt;&lt;/span&gt;&lt;span style=&quot;background-color: initial; text-align: left;&quot;&gt;&lt;b&gt;&amp;nbsp;&lt;/b&gt;&lt;/span&gt;&lt;/p&gt;&lt;hr size=&quot;1&quot; style=&quot;border-style:solid;&quot;&gt;&lt;p style=&quot;margin:0px;margin-left:4px;&quot;&gt;-&amp;nbsp;&lt;span style=&quot;background-color: initial;&quot;&gt;&amp;nbsp;userListView: ListView&lt;/span&gt;&lt;/p&gt;&lt;p style=&quot;margin:0px;margin-left:4px;&quot;&gt;- logoutButton: Button&lt;/p&gt;&lt;p style=&quot;margin:0px;margin-left:4px;&quot;&gt;- editApplianceButton: Button&lt;/p&gt;&lt;p style=&quot;margin:0px;margin-left:4px;&quot;&gt;- dbHelper: DatabaseHelper&lt;/p&gt;&lt;hr size=&quot;1&quot; style=&quot;border-style:solid;&quot;&gt;&lt;p style=&quot;margin:0px;margin-left:4px;&quot;&gt;+ onCreate(&lt;span style=&quot;background-color: initial;&quot;&gt;savedInstanceState:&amp;nbsp;&lt;/span&gt;&lt;span style=&quot;background-color: initial;&quot;&gt;Bundle&lt;/span&gt;): void&lt;/p&gt;" style="verticalAlign=top;align=left;overflow=fill;html=1;whiteSpace=wrap;fillColor=#e1d5e7;strokeColor=#9673a6;" vertex="1" parent="1">
          <mxGeometry x="2040" y="-378" width="300" height="125" as="geometry" />
        </mxCell>
        <mxCell id="8NUegigZWreO3T-o1tuZ-10" value="&lt;p style=&quot;margin: 4px 0px 0px; text-align: center;&quot;&gt;&lt;span style=&quot;background-color: initial; text-align: left;&quot;&gt;&lt;b&gt;DeviceManagerActivity&lt;/b&gt;&lt;/span&gt;&lt;span style=&quot;background-color: initial; text-align: left;&quot;&gt;&lt;b&gt;&amp;nbsp;&lt;/b&gt;&lt;/span&gt;&lt;/p&gt;&lt;hr size=&quot;1&quot; style=&quot;border-style:solid;&quot;&gt;&lt;p style=&quot;margin:0px;margin-left:4px;&quot;&gt;&lt;span style=&quot;background-color: initial;&quot;&gt;- binding: ActivityDevicemanagerBinding&lt;/span&gt;&lt;/p&gt;&lt;p style=&quot;margin:0px;margin-left:4px;&quot;&gt;&lt;span style=&quot;background-color: initial;&quot;&gt;- currentUsername: String&lt;/span&gt;&lt;/p&gt;&lt;p style=&quot;margin:0px;margin-left:4px;&quot;&gt;&lt;span style=&quot;background-color: initial;&quot;&gt;- currentUserID: int&lt;/span&gt;&lt;/p&gt;&lt;hr size=&quot;1&quot; style=&quot;border-style:solid;&quot;&gt;&lt;p style=&quot;margin:0px;margin-left:4px;&quot;&gt;&lt;span style=&quot;background-color: initial;&quot;&gt;+ onCreate(Bundle savedInstanceState): void&lt;/span&gt;&lt;/p&gt;&lt;p style=&quot;margin:0px;margin-left:4px;&quot;&gt;&lt;span style=&quot;background-color: initial;&quot;&gt;+ onCreateOptionsMenu(Menu menu): boolean&lt;/span&gt;&lt;/p&gt;&lt;p style=&quot;margin:0px;margin-left:4px;&quot;&gt;&lt;span style=&quot;background-color: initial;&quot;&gt;+ onOptionsItemSelected(MenuItem item): boolean&lt;/span&gt;&lt;/p&gt;" style="verticalAlign=top;align=left;overflow=fill;html=1;whiteSpace=wrap;fillColor=#e1d5e7;strokeColor=#9673a6;" vertex="1" parent="1">
          <mxGeometry x="2862" y="-1660" width="300" height="145" as="geometry" />
        </mxCell>
        <mxCell id="8NUegigZWreO3T-o1tuZ-11" value="&lt;p style=&quot;margin: 4px 0px 0px; text-align: center;&quot;&gt;&lt;span style=&quot;background-color: initial; text-align: left;&quot;&gt;&lt;b&gt;DashboardActivity&lt;/b&gt;&lt;/span&gt;&lt;span style=&quot;background-color: initial; text-align: left;&quot;&gt;&lt;b&gt;&amp;nbsp;&lt;/b&gt;&lt;/span&gt;&lt;/p&gt;&lt;hr size=&quot;1&quot; style=&quot;border-style:solid;&quot;&gt;&lt;p style=&quot;margin:0px;margin-left:4px;&quot;&gt;&lt;span style=&quot;background-color: initial;&quot;&gt;&amp;nbsp;&lt;/span&gt;&lt;span style=&quot;background-color: initial;&quot;&gt;- binding: ActivityDashboardBinding&lt;/span&gt;&lt;/p&gt;&lt;p style=&quot;margin:0px;margin-left:4px;&quot;&gt;- currentUsername: String&lt;/p&gt;&lt;p style=&quot;margin:0px;margin-left:4px;&quot;&gt;- currentUserID: int&lt;/p&gt;&lt;p style=&quot;margin:0px;margin-left:4px;&quot;&gt;- mCredential: GoogleAccountCredential&lt;/p&gt;&lt;p style=&quot;margin:0px;margin-left:4px;&quot;&gt;- SCOPES: String[] = {&quot;https://www.googleapis.com/auth/gmail.send&quot;}&lt;/p&gt;&lt;p style=&quot;margin:0px;margin-left:4px;&quot;&gt;- REQUEST_ACCOUNT_PICKER: int = 1000&lt;/p&gt;&lt;p style=&quot;margin:0px;margin-left:4px;&quot;&gt;- REQUEST_AUTHORIZATION: int = 1001&lt;/p&gt;&lt;p style=&quot;margin:0px;margin-left:4px;&quot;&gt;- REQUEST_PERMISSIONS: int = 1002&lt;/p&gt;&lt;p style=&quot;margin:0px;margin-left:4px;&quot;&gt;- TAG: String = &quot;DashboardActivity&quot;&lt;/p&gt;&lt;p style=&quot;margin:0px;margin-left:4px;&quot;&gt;- pendingFileUri: Uri&lt;/p&gt;&lt;p style=&quot;margin:0px;margin-left:4px;&quot;&gt;- pendingFileName: String&lt;/p&gt;&lt;p style=&quot;margin:0px;margin-left:4px;&quot;&gt;&lt;br&gt;&lt;/p&gt;&lt;hr size=&quot;1&quot; style=&quot;border-style:solid;&quot;&gt;&lt;p style=&quot;margin:0px;margin-left:4px;&quot;&gt;&lt;span style=&quot;background-color: initial;&quot;&gt;+ onCreate(Bundle savedInstanceState): void&lt;/span&gt;&lt;/p&gt;&lt;p style=&quot;margin:0px;margin-left:4px;&quot;&gt;+ onCreateOptionsMenu(Menu menu): boolean&lt;/p&gt;&lt;p style=&quot;margin:0px;margin-left:4px;&quot;&gt;+ onOptionsItemSelected(MenuItem item): boolean&lt;/p&gt;&lt;p style=&quot;margin:0px;margin-left:4px;&quot;&gt;&lt;br&gt;&lt;/p&gt;&lt;p style=&quot;margin:0px;margin-left:4px;&quot;&gt;- checkPermissionsAndGeneratePdf(): void&lt;/p&gt;&lt;p style=&quot;margin:0px;margin-left:4px;&quot;&gt;- onRequestPermissionsResult(int requestCode, String[] permissions, int[] grantResults): void&lt;/p&gt;&lt;p style=&quot;margin:0px;margin-left:4px;&quot;&gt;- onActivityResult(int requestCode, int resultCode, Intent data): void&lt;/p&gt;&lt;p style=&quot;margin:0px;margin-left:4px;&quot;&gt;&lt;br&gt;&lt;/p&gt;&lt;p style=&quot;margin:0px;margin-left:4px;&quot;&gt;- generatePdf(): void&lt;/p&gt;&lt;p style=&quot;margin:0px;margin-left:4px;&quot;&gt;- getScrollViewHeight(ScrollView scrollView): int&lt;/p&gt;&lt;p style=&quot;margin:0px;margin-left:4px;&quot;&gt;- getBitmapFromView(ScrollView scrollView, int yOffset, int width, int height): Bitmap&lt;/p&gt;&lt;p style=&quot;margin:0px;margin-left:4px;&quot;&gt;- savePdfToDownloadsAndroidQAndAbove(PdfDocument pdfDocument): void&lt;/p&gt;&lt;p style=&quot;margin:0px;margin-left:4px;&quot;&gt;- savePdfToDownloadsLegacy(PdfDocument pdfDocument): void&lt;/p&gt;&lt;p style=&quot;margin:0px;margin-left:4px;&quot;&gt;&lt;br&gt;&lt;/p&gt;&lt;p style=&quot;margin:0px;margin-left:4px;&quot;&gt;- sendEmailUsingGmailAPI(Uri fileUri, String fileName): void&lt;/p&gt;&lt;p style=&quot;margin:0px;margin-left:4px;&quot;&gt;- createEmailWithAttachment(String from, String to, String subject, String bodyText, Uri fileUri, String fileName): MimeMessage&lt;/p&gt;&lt;p style=&quot;margin:0px;margin-left:4px;&quot;&gt;- readBytesFromInputStream(InputStream inputStream): byte[]&lt;/p&gt;&lt;p style=&quot;margin:0px;margin-left:4px;&quot;&gt;- createMessageWithEmail(MimeMessage emailContent): Message&lt;/p&gt;&lt;p style=&quot;margin:0px;margin-left:4px;&quot;&gt;&lt;br&gt;&lt;/p&gt;&lt;p style=&quot;margin:0px;margin-left:4px;&quot;&gt;- getUserEmail(int userID): String&lt;/p&gt;&lt;div&gt;&lt;br&gt;&lt;/div&gt;" style="verticalAlign=top;align=left;overflow=fill;html=1;whiteSpace=wrap;fillColor=#e1d5e7;strokeColor=#9673a6;" vertex="1" parent="1">
          <mxGeometry x="1786" y="-1539" width="365" height="588" as="geometry" />
        </mxCell>
        <mxCell id="8NUegigZWreO3T-o1tuZ-12" value="&lt;p style=&quot;margin: 4px 0px 0px; text-align: center;&quot;&gt;&lt;span style=&quot;background-color: initial; text-align: left;&quot;&gt;&lt;b&gt;UpdateDetailsActivit&lt;/b&gt;&lt;/span&gt;&lt;span style=&quot;background-color: initial; text-align: left;&quot;&gt;&lt;b&gt;y&lt;/b&gt;&lt;/span&gt;&lt;span style=&quot;background-color: initial; text-align: left;&quot;&gt;&lt;b&gt;&amp;nbsp;&lt;/b&gt;&lt;/span&gt;&lt;/p&gt;&lt;hr size=&quot;1&quot; style=&quot;border-style:solid;&quot;&gt;&lt;p style=&quot;margin:0px;margin-left:4px;&quot;&gt;- EditText etUsername&lt;/p&gt;&lt;p style=&quot;margin:0px;margin-left:4px;&quot;&gt;-&amp;nbsp;&lt;span style=&quot;background-color: initial;&quot;&gt;EditText&lt;/span&gt;&lt;span style=&quot;background-color: initial;&quot;&gt;&amp;nbsp;&amp;nbsp;&lt;/span&gt;&lt;span style=&quot;background-color: initial;&quot;&gt;etPassword&lt;/span&gt;&lt;/p&gt;&lt;p style=&quot;margin:0px;margin-left:4px;&quot;&gt;&lt;span style=&quot;background-color: initial;&quot;&gt;-&amp;nbsp;&lt;/span&gt;&lt;span style=&quot;background-color: initial;&quot;&gt;EditText&lt;/span&gt;&lt;span style=&quot;background-color: initial;&quot;&gt;&amp;nbsp;&lt;/span&gt;&lt;span style=&quot;background-color: initial;&quot;&gt;etName&lt;/span&gt;&lt;/p&gt;&lt;p style=&quot;margin:0px;margin-left:4px;&quot;&gt;&lt;span style=&quot;background-color: initial;&quot;&gt;- EditText&lt;/span&gt;&lt;span style=&quot;background-color: initial;&quot;&gt;&amp;nbsp;&lt;/span&gt;&lt;span style=&quot;background-color: initial;&quot;&gt;etEmail&lt;/span&gt;&lt;/p&gt;&lt;p style=&quot;margin:0px;margin-left:4px;&quot;&gt;- Button btnSaveChanges&lt;/p&gt;&lt;p style=&quot;margin:0px;margin-left:4px;&quot;&gt;- DatabaseHelper dbHelper&lt;/p&gt;&lt;p style=&quot;margin:0px;margin-left:4px;&quot;&gt;- String currentUsername&lt;/p&gt;&lt;hr size=&quot;1&quot; style=&quot;border-style:solid;&quot;&gt;&lt;p style=&quot;margin:0px;margin-left:4px;&quot;&gt;# onCreate(&lt;span style=&quot;background-color: initial;&quot;&gt;savedInstanceState:&amp;nbsp;&lt;/span&gt;&lt;span style=&quot;background-color: initial;&quot;&gt;Bundle&lt;/span&gt;): void&lt;/p&gt;&lt;p style=&quot;margin: 0px 0px 0px 4px;&quot;&gt;+&amp;nbsp;onCreateOptionsMenu(menu: Menu): boolean&lt;/p&gt;&lt;p style=&quot;margin: 0px 0px 0px 4px;&quot;&gt;+ onOptionsItemSelected(item : Menu): boolean&lt;/p&gt;" style="verticalAlign=top;align=left;overflow=fill;html=1;whiteSpace=wrap;fillColor=#e1d5e7;strokeColor=#9673a6;" vertex="1" parent="1">
          <mxGeometry x="2245" y="-789" width="300" height="205" as="geometry" />
        </mxCell>
        <mxCell id="8NUegigZWreO3T-o1tuZ-13" value="&lt;p style=&quot;margin: 4px 0px 0px; text-align: center;&quot;&gt;&lt;span style=&quot;background-color: initial; text-align: left;&quot;&gt;&lt;b&gt;DeviceManagerFragment&lt;/b&gt;&lt;/span&gt;&lt;span style=&quot;background-color: initial; text-align: left;&quot;&gt;&lt;b&gt;&amp;nbsp;&lt;/b&gt;&lt;/span&gt;&lt;/p&gt;&lt;hr size=&quot;1&quot; style=&quot;border-style:solid;&quot;&gt;&lt;p style=&quot;margin:0px;margin-left:4px;&quot;&gt;&lt;span style=&quot;background-color: initial;&quot;&gt;-&lt;/span&gt;&lt;span style=&quot;background-color: initial;&quot;&gt;&amp;nbsp;binding: FragmentDevicemanagerBinding&lt;/span&gt;&lt;span style=&quot;background-color: initial;&quot;&gt;&lt;br&gt;&lt;/span&gt;&lt;/p&gt;&lt;p style=&quot;margin:0px;margin-left:4px;&quot;&gt;- deviceList: ArrayList&amp;lt;Device&amp;gt;&lt;/p&gt;&lt;p style=&quot;margin:0px;margin-left:4px;&quot;&gt;- deviceAdapter: DeviceInfoAdapter&lt;/p&gt;&lt;p style=&quot;margin:0px;margin-left:4px;&quot;&gt;- userID: int&lt;/p&gt;&lt;hr size=&quot;1&quot; style=&quot;border-style:solid;&quot;&gt;&lt;p style=&quot;margin:0px;margin-left:4px;&quot;&gt;&lt;span style=&quot;background-color: initial;&quot;&gt;+ onCreateView(inflater: LayoutInflater, container: ViewGroup, savedInstanceState: Bundle): View&lt;/span&gt;&lt;/p&gt;&lt;p style=&quot;margin:0px;margin-left:4px;&quot;&gt;+ onResume(): void&lt;/p&gt;&lt;p style=&quot;margin:0px;margin-left:4px;&quot;&gt;- loadDevicesFromDatabase(): void&lt;/p&gt;&lt;p style=&quot;margin:0px;margin-left:4px;&quot;&gt;+ onActivityResult(requestCode: int, resultCode: int, data: Intent): void&lt;/p&gt;&lt;p style=&quot;margin:0px;margin-left:4px;&quot;&gt;+ onDestroyView(): void&lt;/p&gt;&lt;h3&gt;&lt;/h3&gt;&lt;p style=&quot;margin:0px;margin-left:4px;&quot;&gt;&lt;span style=&quot;background-color: initial;&quot;&gt;&amp;nbsp; &amp;nbsp;&lt;/span&gt;&lt;/p&gt;" style="verticalAlign=top;align=left;overflow=fill;html=1;whiteSpace=wrap;fillColor=#e1d5e7;strokeColor=#9673a6;" vertex="1" parent="1">
          <mxGeometry x="2248" y="-1926" width="325" height="365" as="geometry" />
        </mxCell>
        <mxCell id="8NUegigZWreO3T-o1tuZ-14" value="&lt;p style=&quot;margin: 4px 0px 0px; text-align: center;&quot;&gt;&lt;b&gt;&lt;span style=&quot;background-color: initial; text-align: left;&quot;&gt;BillFragment&lt;/span&gt;&lt;span style=&quot;background-color: initial; text-align: left;&quot;&gt;&amp;nbsp;&lt;/span&gt;&lt;/b&gt;&lt;/p&gt;&lt;hr size=&quot;1&quot; style=&quot;border-style:solid;&quot;&gt;&lt;p style=&quot;margin:0px;margin-left:4px;&quot;&gt;&lt;span style=&quot;background-color: initial;&quot;&gt;-&amp;nbsp;&lt;/span&gt;&lt;span style=&quot;background-color: initial;&quot;&gt;&amp;nbsp;binding: FragmentBillBinding&lt;/span&gt;&lt;/p&gt;&lt;p style=&quot;margin:0px;margin-left:4px;&quot;&gt;- currentUsername: String&lt;/p&gt;&lt;p style=&quot;margin:0px;margin-left:4px;&quot;&gt;- currentUserID: int&lt;/p&gt;&lt;p style=&quot;margin:0px;margin-left:4px;&quot;&gt;- deviceList: ArrayList&amp;lt;Device&amp;gt;&lt;/p&gt;&lt;p style=&quot;margin:0px;margin-left:4px;&quot;&gt;- dbHelper: DatabaseHelper&lt;/p&gt;&lt;p style=&quot;margin:0px;margin-left:4px;&quot;&gt;- energyTariff: double&lt;/p&gt;&lt;hr size=&quot;1&quot; style=&quot;border-style:solid;&quot;&gt;&lt;p style=&quot;margin:0px;margin-left:4px;&quot;&gt;&lt;span style=&quot;background-color: initial;&quot;&gt;+ onCreateView(LayoutInflater inflater, ViewGroup container, Bundle savedInstanceState): View&lt;/span&gt;&lt;/p&gt;&lt;p style=&quot;margin:0px;margin-left:4px;&quot;&gt;+ onViewCreated(View view, Bundle savedInstanceState): void&lt;/p&gt;&lt;p style=&quot;margin:0px;margin-left:4px;&quot;&gt;+ onResume(): void&lt;/p&gt;&lt;p style=&quot;margin:0px;margin-left:4px;&quot;&gt;+ onDestroyView(): void&lt;/p&gt;&lt;p style=&quot;margin:0px;margin-left:4px;&quot;&gt;+ calculateBill(double tariff): void&lt;/p&gt;&lt;p style=&quot;margin:0px;margin-left:4px;&quot;&gt;+ updateBillSubtext(double DailyBill): void&lt;/p&gt;&lt;p style=&quot;margin:0px;margin-left:4px;&quot;&gt;+ getEnergyTariff(TariffCallback callback): void&lt;/p&gt;&lt;p style=&quot;margin:0px;margin-left:4px;&quot;&gt;+ getBillGraphData(): void&lt;/p&gt;&lt;p style=&quot;margin:0px;margin-left:4px;&quot;&gt;+ showLineChart(List&amp;lt;Entry&amp;gt; entries, List&amp;lt;String&amp;gt; years): void&lt;/p&gt;&lt;div&gt;&lt;br&gt;&lt;/div&gt;" style="verticalAlign=top;align=left;overflow=fill;html=1;whiteSpace=wrap;fillColor=#e1d5e7;strokeColor=#9673a6;" vertex="1" parent="1">
          <mxGeometry x="1793" y="-902" width="328" height="306" as="geometry" />
        </mxCell>
        <mxCell id="8NUegigZWreO3T-o1tuZ-17" value="&lt;p style=&quot;margin: 4px 0px 0px; text-align: center;&quot;&gt;&lt;span style=&quot;background-color: initial; text-align: left;&quot;&gt;&lt;b&gt;DeviceInfoAdapter&lt;/b&gt;&lt;/span&gt;&lt;span style=&quot;background-color: initial; text-align: left;&quot;&gt;&lt;b&gt;&amp;nbsp;&lt;/b&gt;&lt;/span&gt;&lt;/p&gt;&lt;hr size=&quot;1&quot; style=&quot;border-style:solid;&quot;&gt;&lt;p style=&quot;margin:0px;margin-left:4px;&quot;&gt;-&amp;nbsp;&lt;span style=&quot;background-color: initial;&quot;&gt;deviceList: List&amp;lt;ItemDeviceManagerDisplay&amp;gt;&lt;/span&gt;&lt;/p&gt;&lt;p style=&quot;margin:0px;margin-left:4px;&quot;&gt;&lt;span style=&quot;background-color: initial;&quot;&gt;- context: Context&lt;/span&gt;&lt;/p&gt;&lt;hr size=&quot;1&quot; style=&quot;border-style:solid;&quot;&gt;&lt;p style=&quot;margin:0px;margin-left:4px;&quot;&gt;&lt;span style=&quot;background-color: initial;&quot;&gt;+ DeviceInfoAdapter(List&amp;lt;Device&amp;gt; deviceList): void&lt;/span&gt;&lt;/p&gt;&lt;p style=&quot;margin:0px;margin-left:4px;&quot;&gt;+ onCreateViewHolder(@NonNull ViewGroup parent, int viewType): ViewHolder&lt;/p&gt;&lt;p style=&quot;margin:0px;margin-left:4px;&quot;&gt;+ onBindViewHolder(@NonNull ViewHolder holder, int position): void&lt;/p&gt;&lt;p style=&quot;margin:0px;margin-left:4px;&quot;&gt;+ getItemCount(): int&lt;/p&gt;&lt;p style=&quot;margin:0px;margin-left:4px;&quot;&gt;- removeDevice(String deviceName, int position, Context context): void&lt;/p&gt;&lt;div&gt;&lt;br&gt;&lt;/div&gt;" style="verticalAlign=top;align=left;overflow=fill;html=1;whiteSpace=wrap;fillColor=#dae8fc;strokeColor=#6c8ebf;" vertex="1" parent="1">
          <mxGeometry x="701" y="-1455" width="309" height="238" as="geometry" />
        </mxCell>
        <mxCell id="8NUegigZWreO3T-o1tuZ-21" value="&lt;p style=&quot;margin: 4px 0px 0px; text-align: center;&quot;&gt;&lt;b&gt;&lt;span style=&quot;background-color: initial; text-align: left;&quot;&gt;MainActivity&lt;/span&gt;&lt;span style=&quot;background-color: initial; text-align: left;&quot;&gt;&amp;nbsp;&lt;/span&gt;&lt;/b&gt;&lt;/p&gt;&lt;hr size=&quot;1&quot; style=&quot;border-style:solid;&quot;&gt;&lt;p style=&quot;margin:0px;margin-left:4px;&quot;&gt;&lt;span style=&quot;background-color: initial;&quot;&gt;&amp;nbsp;&lt;/span&gt;&lt;span style=&quot;background-color: initial;&quot;&gt;- binding: ActivityMainBinding&lt;/span&gt;&lt;/p&gt;&lt;p style=&quot;margin:0px;margin-left:4px;&quot;&gt;- appBarConfiguration: AppBarConfiguration&lt;/p&gt;&lt;p style=&quot;margin:0px;margin-left:4px;&quot;&gt;- credential: GoogleAccountCredential&lt;/p&gt;&lt;hr size=&quot;1&quot; style=&quot;border-style:solid;&quot;&gt;&lt;p style=&quot;margin:0px;margin-left:4px;&quot;&gt;&lt;span style=&quot;background-color: initial;&quot;&gt;# onCreate(savedInstanceState: Bundle): void&lt;/span&gt;&lt;/p&gt;&lt;p style=&quot;margin: 0px 0px 0px 4px;&quot;&gt;# onActivityResult(requestCode: int, resultCode: int, data: Intent): void&lt;/p&gt;&lt;p style=&quot;margin: 0px 0px 0px 4px;&quot;&gt;+ boolean onCreateOptionsMenu(menu: Menu): boolean&lt;/p&gt;&lt;p style=&quot;margin: 0px 0px 0px 4px;&quot;&gt;+ boolean onOptionsItemSelected(item: MenuItem): boolean&lt;/p&gt;&lt;p style=&quot;margin: 0px 0px 0px 4px;&quot;&gt;+ boolean onSupportNavigateUp(): boolean&lt;/p&gt;&lt;p style=&quot;margin: 0px 0px 0px 4px;&quot;&gt;+ generateDashboardPdfFromView(dashboardView: View, pdfPath: String): void&lt;/p&gt;&lt;p style=&quot;margin: 0px 0px 0px 4px;&quot;&gt;+ sendEmailWithPdf(recipientEmail: String, pdfUri: Uri): void&lt;/p&gt;&lt;p style=&quot;margin: 0px 0px 0px 4px;&quot;&gt;+ captureView(view: View): Bitmap&lt;/p&gt;" style="verticalAlign=top;align=left;overflow=fill;html=1;whiteSpace=wrap;fillColor=#e1d5e7;strokeColor=#9673a6;" vertex="1" parent="1">
          <mxGeometry x="2779" y="-1261" width="300" height="314" as="geometry" />
        </mxCell>
        <mxCell id="8NUegigZWreO3T-o1tuZ-22" value="&lt;p style=&quot;margin: 4px 0px 0px; text-align: center;&quot;&gt;&lt;b&gt;PowerUsageFragment&lt;/b&gt;&lt;/p&gt;&lt;hr size=&quot;1&quot; style=&quot;border-style:solid;&quot;&gt;&lt;p style=&quot;margin:0px;margin-left:4px;&quot;&gt;&lt;span style=&quot;background-color: initial;&quot;&gt;-&amp;nbsp;&lt;/span&gt;&lt;span style=&quot;background-color: initial;&quot;&gt;binding: FragmentPowerusageBinding&lt;/span&gt;&lt;span style=&quot;background-color: initial;&quot;&gt;&lt;br&gt;&lt;/span&gt;&lt;/p&gt;&lt;p style=&quot;margin:0px;margin-left:4px;&quot;&gt;- currentUsername: String&lt;/p&gt;&lt;p style=&quot;margin:0px;margin-left:4px;&quot;&gt;- currentUserID: int&lt;/p&gt;&lt;p style=&quot;margin:0px;margin-left:4px;&quot;&gt;- deviceList: ArrayList&amp;lt;Device&amp;gt;&lt;/p&gt;&lt;p style=&quot;margin:0px;margin-left:4px;&quot;&gt;- dbHelper: DatabaseHelper&lt;/p&gt;&lt;p style=&quot;margin:0px;margin-left:4px;&quot;&gt;- NationalAveragePowerConsumption: double&lt;/p&gt;&lt;p style=&quot;margin:0px;margin-left:4px;&quot;&gt;- onlineDataSuccess: boolean&lt;/p&gt;&lt;p style=&quot;margin:0px;margin-left:4px;&quot;&gt;- notificationHelper: NotificationHelper&lt;/p&gt;&lt;p style=&quot;margin:0px;margin-left:4px;&quot;&gt;- notificationSent: boolean&lt;/p&gt;&lt;p style=&quot;margin:0px;margin-left:4px;&quot;&gt;- NOTIFICATION_PERMISSION_REQUEST_CODE: int&lt;/p&gt;&lt;hr size=&quot;1&quot; style=&quot;border-style:solid;&quot;&gt;&lt;p style=&quot;margin:0px;margin-left:4px;&quot;&gt;+ onViewCreated(View view, Bundle savedInstanceState): void&amp;nbsp;&amp;nbsp;&lt;/p&gt;&lt;p style=&quot;margin:0px;margin-left:4px;&quot;&gt;+ onDataFetched(): void&amp;nbsp;&amp;nbsp;&lt;/p&gt;&lt;p style=&quot;margin:0px;margin-left:4px;&quot;&gt;+ onError(String error): void&amp;nbsp;&amp;nbsp;&lt;/p&gt;&lt;p style=&quot;margin:0px;margin-left:4px;&quot;&gt;+ updateStatCompare(double userTotal): void&amp;nbsp;&amp;nbsp;&lt;/p&gt;&lt;p style=&quot;margin:0px;margin-left:4px;&quot;&gt;+ getDeviceListSize(): int&amp;nbsp;&amp;nbsp;&lt;/p&gt;&lt;p style=&quot;margin:0px;margin-left:4px;&quot;&gt;+ getAverageDuration(): double&amp;nbsp;&amp;nbsp;&lt;/p&gt;&lt;p style=&quot;margin:0px;margin-left:4px;&quot;&gt;+ getAvergeUsage(): double&amp;nbsp;&amp;nbsp;&lt;/p&gt;&lt;p style=&quot;margin:0px;margin-left:4px;&quot;&gt;+ sortDeviceList(): void&amp;nbsp;&amp;nbsp;&lt;/p&gt;&lt;p style=&quot;margin:0px;margin-left:4px;&quot;&gt;+ refreshData(): void&amp;nbsp;&amp;nbsp;&lt;/p&gt;&lt;p style=&quot;margin:0px;margin-left:4px;&quot;&gt;+ removeExistingTable(): void&amp;nbsp;&amp;nbsp;&lt;/p&gt;&lt;p style=&quot;margin:0px;margin-left:4px;&quot;&gt;+ onDestroyView(): void&amp;nbsp;&amp;nbsp;&lt;/p&gt;&lt;p style=&quot;margin:0px;margin-left:4px;&quot;&gt;+ onResume(): void&amp;nbsp;&amp;nbsp;&lt;/p&gt;&lt;p style=&quot;margin:0px;margin-left:4px;&quot;&gt;+ fetchData(CsvDataListener listener): void&amp;nbsp;&amp;nbsp;&lt;/p&gt;&lt;p style=&quot;margin:0px;margin-left:4px;&quot;&gt;+ calculateAverage(ArrayList&amp;lt;String[]&amp;gt; data): double&amp;nbsp;&amp;nbsp;&lt;/p&gt;&lt;p style=&quot;margin:0px;margin-left:4px;&quot;&gt;+ displayPieChart(): void&amp;nbsp;&amp;nbsp;&lt;/p&gt;&lt;p style=&quot;margin:0px;margin-left:4px;&quot;&gt;+ getFormattedValue(float value): String&amp;nbsp;&amp;nbsp;&lt;/p&gt;&lt;p style=&quot;margin:0px;margin-left:4px;&quot;&gt;+ displayBarChart(): void&amp;nbsp;&amp;nbsp;&lt;/p&gt;&lt;p style=&quot;margin:0px;margin-left:4px;&quot;&gt;+ getBarStackedLabel(float value): String&amp;nbsp;&amp;nbsp;&lt;/p&gt;&lt;div&gt;&lt;br&gt;&lt;/div&gt;" style="verticalAlign=top;align=left;overflow=fill;html=1;whiteSpace=wrap;fillColor=#e1d5e7;strokeColor=#9673a6;" vertex="1" parent="1">
          <mxGeometry x="1342" y="-1715" width="329" height="468" as="geometry" />
        </mxCell>
        <mxCell id="8NUegigZWreO3T-o1tuZ-25" value="&lt;p style=&quot;margin: 4px 0px 0px; text-align: center;&quot;&gt;&lt;b&gt;LoginActivity&lt;/b&gt;&lt;/p&gt;&lt;hr size=&quot;1&quot; style=&quot;border-style:solid;&quot;&gt;&lt;p style=&quot;margin:0px;margin-left:4px;&quot;&gt;&lt;span style=&quot;background-color: initial;&quot;&gt;-&amp;nbsp;&lt;/span&gt;&lt;span style=&quot;background-color: initial;&quot;&gt;&amp;nbsp;etLoginUsername: EditText&lt;/span&gt;&lt;/p&gt;&lt;p style=&quot;margin:0px;margin-left:4px;&quot;&gt;- etLoginPassword: EditText&lt;/p&gt;&lt;p style=&quot;margin:0px;margin-left:4px;&quot;&gt;- loginButton: Button&lt;/p&gt;&lt;p style=&quot;margin:0px;margin-left:4px;&quot;&gt;- registerButton: Button&lt;/p&gt;&lt;p style=&quot;margin:0px;margin-left:4px;&quot;&gt;- backButton: Button&lt;/p&gt;&lt;p style=&quot;margin:0px;margin-left:4px;&quot;&gt;- btnForgotPassword: Button&lt;/p&gt;&lt;p style=&quot;margin:0px;margin-left:4px;&quot;&gt;- dbHelper: DatabaseHelper&lt;span style=&quot;background-color: initial;&quot;&gt;&amp;nbsp;&lt;/span&gt;&lt;/p&gt;&lt;hr size=&quot;1&quot; style=&quot;border-style:solid;&quot;&gt;&lt;p style=&quot;margin:0px;margin-left:4px;&quot;&gt;&lt;span style=&quot;background-color: initial;&quot;&gt;+ onCreate(Bundle savedInstanceState): void&lt;/span&gt;&lt;/p&gt;&lt;h3&gt;&lt;/h3&gt;" style="verticalAlign=top;align=left;overflow=fill;html=1;whiteSpace=wrap;fillColor=#e1d5e7;strokeColor=#9673a6;" vertex="1" parent="1">
          <mxGeometry x="1342" y="-767" width="300" height="193" as="geometry" />
        </mxCell>
        <mxCell id="8NUegigZWreO3T-o1tuZ-26" value="&lt;p style=&quot;margin: 4px 0px 0px; text-align: center;&quot;&gt;&lt;span style=&quot;background-color: initial; text-align: left;&quot;&gt;&lt;b&gt;RegisterActivity&lt;/b&gt;&lt;/span&gt;&lt;span style=&quot;background-color: initial; text-align: left;&quot;&gt;&lt;b&gt;&amp;nbsp;&lt;/b&gt;&lt;/span&gt;&lt;/p&gt;&lt;hr size=&quot;1&quot; style=&quot;border-style:solid;&quot;&gt;&lt;p style=&quot;margin:0px;margin-left:4px;&quot;&gt;- etUsername: EditText&lt;/p&gt;&lt;p style=&quot;margin:0px;margin-left:4px;&quot;&gt;- etPassword: EditText&lt;/p&gt;&lt;p style=&quot;margin:0px;margin-left:4px;&quot;&gt;- etName: EditText&lt;/p&gt;&lt;p style=&quot;margin:0px;margin-left:4px;&quot;&gt;- etEmail: EditText&lt;/p&gt;&lt;p style=&quot;margin:0px;margin-left:4px;&quot;&gt;- btnRegister: Button&lt;/p&gt;&lt;p style=&quot;margin:0px;margin-left:4px;&quot;&gt;- btnBack: Button&lt;/p&gt;&lt;p style=&quot;margin:0px;margin-left:4px;&quot;&gt;- dbHelper: DatabaseHelper&lt;/p&gt;&lt;hr size=&quot;1&quot; style=&quot;border-style:solid;&quot;&gt;&lt;p style=&quot;margin:0px;margin-left:4px;&quot;&gt;+ onCreate(&lt;span style=&quot;background-color: initial;&quot;&gt;savedInstanceState:&amp;nbsp;&lt;/span&gt;&lt;span style=&quot;background-color: initial;&quot;&gt;Bundle&lt;/span&gt;): void&lt;/p&gt;" style="verticalAlign=top;align=left;overflow=fill;html=1;whiteSpace=wrap;fillColor=#e1d5e7;strokeColor=#9673a6;" vertex="1" parent="1">
          <mxGeometry x="1344" y="-1169" width="300" height="175" as="geometry" />
        </mxCell>
        <mxCell id="8NUegigZWreO3T-o1tuZ-27" value="&lt;p style=&quot;margin:0px;margin-top:4px;text-align:center;&quot;&gt;&lt;span style=&quot;background-color: initial; text-align: left;&quot;&gt;&lt;b&gt;ForgotPasswordActivity&amp;nbsp;&lt;/b&gt;&lt;/span&gt;&lt;/p&gt;&lt;hr size=&quot;1&quot; style=&quot;border-style:solid;&quot;&gt;&lt;p style=&quot;margin:0px;margin-left:4px;&quot;&gt;&lt;span style=&quot;background-color: initial;&quot;&gt;&amp;nbsp;&lt;/span&gt;&lt;span style=&quot;background-color: initial;&quot;&gt;-&lt;/span&gt;&lt;span style=&quot;background-color: initial;&quot;&gt;&amp;nbsp;etUsername: EditText&lt;/span&gt;&lt;/p&gt;&lt;p style=&quot;margin:0px;margin-left:4px;&quot;&gt;- etEmail: EditText&lt;/p&gt;&lt;p style=&quot;margin:0px;margin-left:4px;&quot;&gt;- btnValidateInfo: Button&lt;/p&gt;&lt;p style=&quot;margin:0px;margin-left:4px;&quot;&gt;- btnBack: Button&lt;/p&gt;&lt;p style=&quot;margin:0px;margin-left:4px;&quot;&gt;- dbHelper: DatabaseHelper&lt;/p&gt;&lt;hr size=&quot;1&quot; style=&quot;border-style:solid;&quot;&gt;&lt;p style=&quot;margin:0px;margin-left:4px;&quot;&gt;+ onCreate(&lt;span style=&quot;background-color: initial;&quot;&gt;savedInstanceState:&amp;nbsp;&lt;/span&gt;&lt;span style=&quot;background-color: initial;&quot;&gt;Bundle&lt;/span&gt;): void&lt;/p&gt;" style="verticalAlign=top;align=left;overflow=fill;html=1;whiteSpace=wrap;fillColor=#e1d5e7;strokeColor=#9673a6;" vertex="1" parent="1">
          <mxGeometry x="2762" y="-775" width="300" height="140" as="geometry" />
        </mxCell>
        <mxCell id="tvtKjg2gaKu45afXB-1r-1" value="&lt;p style=&quot;margin: 4px 0px 0px; text-align: center;&quot;&gt;&lt;b&gt;AddDeviceActivity&lt;/b&gt;&lt;/p&gt;&lt;hr size=&quot;1&quot; style=&quot;border-style:solid;&quot;&gt;&lt;p style=&quot;margin:0px;margin-left:4px;&quot;&gt;&lt;span style=&quot;background-color: initial;&quot;&gt;-&amp;nbsp;&lt;/span&gt;&lt;span style=&quot;background-color: initial;&quot;&gt;deviceSpinner: Spinner&lt;/span&gt;&lt;span style=&quot;background-color: initial;&quot;&gt;&lt;br&gt;&lt;/span&gt;&lt;/p&gt;&lt;p style=&quot;margin:0px;margin-left:4px;&quot;&gt;- customDeviceNameEditText: EditText&lt;/p&gt;&lt;p style=&quot;margin:0px;margin-left:4px;&quot;&gt;- powerUsageEditText: EditText&lt;/p&gt;&lt;p style=&quot;margin:0px;margin-left:4px;&quot;&gt;- durationHoursEditText: EditText&lt;/p&gt;&lt;p style=&quot;margin:0px;margin-left:4px;&quot;&gt;- durationMinutesEditText: EditText&lt;/p&gt;&lt;p style=&quot;margin:0px;margin-left:4px;&quot;&gt;- addButton: Button&lt;/p&gt;&lt;p style=&quot;margin:0px;margin-left:4px;&quot;&gt;- discardButton: Button&lt;/p&gt;&lt;p style=&quot;margin:0px;margin-left:4px;&quot;&gt;- dbHelper: DatabaseHelper&lt;/p&gt;&lt;p style=&quot;margin:0px;margin-left:4px;&quot;&gt;- applianceList: List&amp;lt;Appliance&amp;gt;&lt;/p&gt;&lt;p style=&quot;margin:0px;margin-left:4px;&quot;&gt;- deviceAdapter: ArrayAdapter&amp;lt;String&amp;gt;&lt;/p&gt;&lt;p style=&quot;margin:0px;margin-left:4px;&quot;&gt;- isEditMode: boolean&lt;/p&gt;&lt;p style=&quot;margin:0px;margin-left:4px;&quot;&gt;- deviceID: int&lt;/p&gt;&lt;p style=&quot;margin:0px;margin-left:4px;&quot;&gt;- userID: int&lt;/p&gt;&lt;p style=&quot;margin:0px;margin-left:4px;&quot;&gt;- editSavedApplianceData: Appliance&lt;/p&gt;&lt;hr size=&quot;1&quot; style=&quot;border-style:solid;&quot;&gt;&lt;p style=&quot;margin:0px;margin-left:4px;&quot;&gt;+ onCreate(Bundle savedInstanceState): void&lt;/p&gt;&lt;p style=&quot;margin:0px;margin-left:4px;&quot;&gt;- loadAppliancesFromDatabase(): void&lt;/p&gt;&lt;p style=&quot;margin:0px;margin-left:4px;&quot;&gt;- setUpEditMode(): void&lt;/p&gt;&lt;p style=&quot;margin:0px;margin-left:4px;&quot;&gt;- addDeviceToDatabase(): void&lt;/p&gt;&lt;p style=&quot;margin:0px;margin-left:4px;&quot;&gt;- updateDeviceInDatabase(): void&lt;/p&gt;&lt;div&gt;&lt;br&gt;&lt;/div&gt;&lt;div&gt;&lt;br&gt;&lt;/div&gt;&lt;p style=&quot;margin:0px;margin-left:4px;&quot;&gt;&lt;span style=&quot;background-color: initial;&quot;&gt;&amp;nbsp;&lt;/span&gt;&lt;/p&gt;" style="verticalAlign=top;align=left;overflow=fill;html=1;whiteSpace=wrap;fillColor=#e1d5e7;strokeColor=#9673a6;" vertex="1" parent="1">
          <mxGeometry x="1342" y="-2090" width="329" height="330" as="geometry" />
        </mxCell>
        <mxCell id="ooXpMAyMFkbcJkBeO3l_-2" value="&lt;p style=&quot;margin:0px;margin-top:4px;text-align:center;&quot;&gt;&lt;b&gt;Appliance&lt;/b&gt;&lt;/p&gt;&lt;hr size=&quot;1&quot; style=&quot;border-style:solid;&quot;&gt;&lt;p style=&quot;margin:0px;margin-left:4px;&quot;&gt;&lt;span style=&quot;background-color: initial;&quot;&gt;- id: int&lt;/span&gt;&lt;/p&gt;&lt;p style=&quot;margin:0px;margin-left:4px;&quot;&gt;&lt;span style=&quot;background-color: initial;&quot;&gt;- name: String&lt;/span&gt;&lt;/p&gt;&lt;p style=&quot;margin:0px;margin-left:4px;&quot;&gt;&lt;span style=&quot;background-color: initial;&quot;&gt;- powerRating: int&lt;/span&gt;&lt;/p&gt;&lt;hr size=&quot;1&quot; style=&quot;border-style:solid;&quot;&gt;&lt;p style=&quot;margin:0px;margin-left:4px;&quot;&gt;&lt;span style=&quot;background-color: initial;&quot;&gt;+ getId(): int&lt;/span&gt;&lt;/p&gt;&lt;p style=&quot;margin:0px;margin-left:4px;&quot;&gt;&lt;span style=&quot;background-color: initial;&quot;&gt;+ setId(int id): void&lt;/span&gt;&lt;/p&gt;&lt;p style=&quot;margin:0px;margin-left:4px;&quot;&gt;&lt;span style=&quot;background-color: initial;&quot;&gt;+ getName(): String&lt;/span&gt;&lt;/p&gt;&lt;p style=&quot;margin:0px;margin-left:4px;&quot;&gt;&lt;span style=&quot;background-color: initial;&quot;&gt;+ setName(String name): void&lt;/span&gt;&lt;/p&gt;&lt;p style=&quot;margin:0px;margin-left:4px;&quot;&gt;&lt;span style=&quot;background-color: initial;&quot;&gt;+ getPowerRating(): int&lt;/span&gt;&lt;/p&gt;&lt;p style=&quot;margin:0px;margin-left:4px;&quot;&gt;&lt;span style=&quot;background-color: initial;&quot;&gt;+ setPowerRating(int powerRating): void&lt;/span&gt;&lt;/p&gt;" style="verticalAlign=top;align=left;overflow=fill;html=1;whiteSpace=wrap;fillColor=#fff2cc;strokeColor=#d6b656;" vertex="1" parent="1">
          <mxGeometry x="-47" y="378" width="246" height="320" as="geometry" />
        </mxCell>
        <mxCell id="ooXpMAyMFkbcJkBeO3l_-3" value="&lt;p style=&quot;margin: 4px 0px 0px; text-align: center;&quot;&gt;&lt;b style=&quot;&quot;&gt;AdminApplianceManagerActivity&lt;/b&gt;&lt;/p&gt;&lt;hr size=&quot;1&quot; style=&quot;border-style:solid;&quot;&gt;&lt;p style=&quot;margin:0px;margin-left:4px;&quot;&gt;&lt;span style=&quot;background-color: initial;&quot;&gt;- recyclerView: RecyclerView&lt;/span&gt;&lt;/p&gt;&lt;p style=&quot;margin:0px;margin-left:4px;&quot;&gt;&lt;span style=&quot;background-color: initial;&quot;&gt;- adapter: ApplianceAdapter&lt;/span&gt;&lt;/p&gt;&lt;p style=&quot;margin:0px;margin-left:4px;&quot;&gt;&lt;span style=&quot;background-color: initial;&quot;&gt;- dbHelper: DatabaseHelper&lt;/span&gt;&lt;/p&gt;&lt;p style=&quot;margin:0px;margin-left:4px;&quot;&gt;&lt;span style=&quot;background-color: initial;&quot;&gt;- applianceList: ArrayList&amp;lt;Appliance&amp;gt;&lt;/span&gt;&lt;/p&gt;&lt;h4&gt;&lt;/h4&gt;&lt;hr size=&quot;1&quot; style=&quot;border-style:solid;&quot;&gt;&lt;p style=&quot;margin:0px;margin-left:4px;&quot;&gt;&lt;span style=&quot;background-color: initial;&quot;&gt;+ onCreate(Bundle savedInstanceState): void&lt;/span&gt;&lt;/p&gt;&lt;p style=&quot;margin:0px;margin-left:4px;&quot;&gt;- showAddOrEditDialog(appliance: Appliance): void&lt;span style=&quot;background-color: initial;&quot;&gt;&lt;/span&gt;&lt;/p&gt;" style="verticalAlign=top;align=left;overflow=fill;html=1;whiteSpace=wrap;fillColor=#e1d5e7;strokeColor=#9673a6;" vertex="1" parent="1">
          <mxGeometry x="1557" y="-387" width="300" height="180" as="geometry" />
        </mxCell>
        <mxCell id="b-kxwEwmXriyLvLz8vZ1-2" value="&lt;p style=&quot;margin:0px;margin-top:4px;text-align:center;&quot;&gt;&lt;span style=&quot;background-color: initial; text-align: left;&quot;&gt;&lt;b&gt;AdminResetPasswordActivity&amp;nbsp;&lt;/b&gt;&lt;/span&gt;&lt;/p&gt;&lt;hr size=&quot;1&quot; style=&quot;border-style:solid;&quot;&gt;&lt;p style=&quot;margin:0px;margin-left:4px;&quot;&gt;&lt;span style=&quot;background-color: initial;&quot;&gt;-&amp;nbsp;&lt;/span&gt;&lt;span style=&quot;background-color: initial;&quot;&gt;etNewPassword: EditText&lt;/span&gt;&lt;span style=&quot;background-color: initial;&quot;&gt;&lt;br&gt;&lt;/span&gt;&lt;/p&gt;&lt;p style=&quot;margin:0px;margin-left:4px;&quot;&gt;- etConfirmPassword: EditText&lt;/p&gt;&lt;p style=&quot;margin:0px;margin-left:4px;&quot;&gt;- btnResetPassword: Button&lt;/p&gt;&lt;p style=&quot;margin:0px;margin-left:4px;&quot;&gt;- dbHelper: DatabaseHelper&lt;/p&gt;&lt;p style=&quot;margin:0px;margin-left:4px;&quot;&gt;- username: String&lt;/p&gt;&lt;hr size=&quot;1&quot; style=&quot;border-style:solid;&quot;&gt;&lt;p style=&quot;margin:0px;margin-left:4px;&quot;&gt;+ onCreate(&lt;span style=&quot;background-color: initial;&quot;&gt;savedInstanceState:&amp;nbsp;&lt;/span&gt;&lt;span style=&quot;background-color: initial;&quot;&gt;Bundle&lt;/span&gt;): void&lt;/p&gt;" style="verticalAlign=top;align=left;overflow=fill;html=1;whiteSpace=wrap;fillColor=#e1d5e7;strokeColor=#9673a6;" vertex="1" parent="1">
          <mxGeometry x="2114" y="157" width="300" height="147" as="geometry" />
        </mxCell>
        <mxCell id="b-kxwEwmXriyLvLz8vZ1-3" value="&lt;p style=&quot;margin: 4px 0px 0px; text-align: center;&quot;&gt;&lt;b&gt;DashboardFragment&lt;/b&gt;&lt;/p&gt;&lt;hr size=&quot;1&quot; style=&quot;border-style:solid;&quot;&gt;&lt;p style=&quot;margin:0px;margin-left:4px;&quot;&gt;&lt;span style=&quot;background-color: initial;&quot;&gt;- binding: FragmentDashboardBinding&lt;br&gt;&lt;/span&gt;&lt;/p&gt;&lt;hr size=&quot;1&quot; style=&quot;border-style:solid;&quot;&gt;&lt;p style=&quot;margin:0px;margin-left:4px;&quot;&gt;&lt;span style=&quot;background-color: initial;&quot;&gt;+ onViewCreated(View view, Bundle savedInstanceState): void&lt;/span&gt;&lt;/p&gt;&lt;p style=&quot;margin:0px;margin-left:4px;&quot;&gt;&lt;span style=&quot;background-color: initial;&quot;&gt;+ onDestroyView(): void&lt;/span&gt;&lt;/p&gt;" style="verticalAlign=top;align=left;overflow=fill;html=1;whiteSpace=wrap;fillColor=#e1d5e7;strokeColor=#9673a6;" vertex="1" parent="1">
          <mxGeometry x="2814" y="-1982" width="329" height="306" as="geometry" />
        </mxCell>
        <mxCell id="b-kxwEwmXriyLvLz8vZ1-4" value="&lt;p style=&quot;margin: 4px 0px 0px; text-align: center;&quot;&gt;&lt;b&gt;EditApplianceActivity&lt;/b&gt;&lt;/p&gt;&lt;hr size=&quot;1&quot; style=&quot;border-style:solid;&quot;&gt;&lt;p style=&quot;margin:0px;margin-left:4px;&quot;&gt;&lt;span style=&quot;background-color: initial;&quot;&gt;-&lt;/span&gt;&lt;span style=&quot;background-color: initial;&quot;&gt;&amp;nbsp;dbHelper: DatabaseHelper&lt;/span&gt;&lt;span style=&quot;background-color: initial;&quot;&gt;&lt;br&gt;&lt;/span&gt;&lt;/p&gt;&lt;p style=&quot;margin:0px;margin-left:4px;&quot;&gt;- applianceNameEditText: EditText&lt;/p&gt;&lt;p style=&quot;margin:0px;margin-left:4px;&quot;&gt;- powerRatingEditText: EditText&lt;/p&gt;&lt;p style=&quot;margin:0px;margin-left:4px;&quot;&gt;- saveButton: Button&lt;/p&gt;&lt;p style=&quot;margin:0px;margin-left:4px;&quot;&gt;- addButton: Button&lt;/p&gt;&lt;p style=&quot;margin:0px;margin-left:4px;&quot;&gt;- applianceRecyclerView: RecyclerView&lt;/p&gt;&lt;p style=&quot;margin:0px;margin-left:4px;&quot;&gt;- applianceAdapter: ApplianceAdapter&lt;/p&gt;&lt;p style=&quot;margin:0px;margin-left:4px;&quot;&gt;- applianceList: ArrayList&amp;lt;Appliance&amp;gt;&lt;/p&gt;&lt;div&gt;&lt;br&gt;&lt;/div&gt;&lt;hr size=&quot;1&quot; style=&quot;border-style:solid;&quot;&gt;&lt;p style=&quot;margin:0px;margin-left:4px;&quot;&gt;&lt;span style=&quot;background-color: initial;&quot;&gt;&amp;nbsp;&lt;/span&gt;&lt;span style=&quot;background-color: initial;&quot;&gt;+ onCreate(Bundle savedInstanceState): void&lt;/span&gt;&lt;/p&gt;&lt;p style=&quot;margin:0px;margin-left:4px;&quot;&gt;&lt;span style=&quot;background-color: initial;&quot;&gt;- addNewAppliance(): void&lt;/span&gt;&lt;/p&gt;&lt;p style=&quot;margin:0px;margin-left:4px;&quot;&gt;&lt;span style=&quot;background-color: initial;&quot;&gt;- saveAppliances(): void&lt;/span&gt;&lt;/p&gt;&lt;p style=&quot;margin:0px;margin-left:4px;&quot;&gt;&lt;span style=&quot;background-color: initial;&quot;&gt;&amp;nbsp;&lt;/span&gt;&lt;/p&gt;" style="verticalAlign=top;align=left;overflow=fill;html=1;whiteSpace=wrap;fillColor=#e1d5e7;strokeColor=#9673a6;" vertex="1" parent="1">
          <mxGeometry x="2653" y="-369" width="329" height="305" as="geometry" />
        </mxCell>
        <mxCell id="b-kxwEwmXriyLvLz8vZ1-6" value="&lt;p style=&quot;margin: 4px 0px 0px; text-align: center;&quot;&gt;&lt;b&gt;GmailHelper&lt;/b&gt;&lt;/p&gt;&lt;hr size=&quot;1&quot; style=&quot;border-style:solid;&quot;&gt;&lt;p style=&quot;margin:0px;margin-left:4px;&quot;&gt;&lt;span style=&quot;background-color: initial;&quot;&gt;-&amp;nbsp;&lt;/span&gt;&lt;span style=&quot;background-color: initial;&quot;&gt;context: Context&lt;/span&gt;&lt;/p&gt;&lt;p style=&quot;margin:0px;margin-left:4px;&quot;&gt;&lt;span style=&quot;background-color: initial;&quot;&gt;- gmailService: Gmail&lt;/span&gt;&lt;/p&gt;&lt;p style=&quot;margin:0px;margin-left:4px;&quot;&gt;&lt;span style=&quot;background-color: initial;&quot;&gt;- TAG: String&lt;/span&gt;&lt;/p&gt;&lt;hr size=&quot;1&quot; style=&quot;border-style:solid;&quot;&gt;&lt;p style=&quot;margin:0px;margin-left:4px;&quot;&gt;&lt;span style=&quot;background-color: initial;&quot;&gt;+ GmailHelper(context: Context, credential: GoogleAccountCredential): void&lt;/span&gt;&lt;/p&gt;&lt;p style=&quot;margin:0px;margin-left:4px;&quot;&gt;&lt;span style=&quot;background-color: initial;&quot;&gt;+ getGmailService(): Gmail&lt;/span&gt;&lt;/p&gt;&lt;p style=&quot;margin:0px;margin-left:4px;&quot;&gt;&lt;span style=&quot;background-color: initial;&quot;&gt;+ sendEmailWithAttachment(from: String, to: String, subject: String, bodyText: String, fileUri: Uri, fileName: String): void&lt;/span&gt;&lt;/p&gt;&lt;h4&gt;&lt;/h4&gt;" style="verticalAlign=top;align=left;overflow=fill;html=1;whiteSpace=wrap;fillColor=#dae8fc;strokeColor=#6c8ebf;" vertex="1" parent="1">
          <mxGeometry x="-463" y="-927" width="309" height="179.5" as="geometry" />
        </mxCell>
        <mxCell id="b-kxwEwmXriyLvLz8vZ1-8" value="&lt;p style=&quot;margin: 4px 0px 0px; text-align: center;&quot;&gt;&lt;span style=&quot;background-color: initial; text-align: left;&quot;&gt;&lt;b&gt;NotificationHelper&lt;/b&gt;&lt;/span&gt;&lt;/p&gt;&lt;hr size=&quot;1&quot; style=&quot;border-style:solid;&quot;&gt;&lt;p style=&quot;margin:0px;margin-left:4px;&quot;&gt;&lt;span style=&quot;background-color: initial;&quot;&gt;-&lt;/span&gt;&lt;span style=&quot;background-color: initial;&quot;&gt;&amp;nbsp;&lt;/span&gt;&lt;span style=&quot;background-color: initial;&quot;&gt;CHANNEL_ID: String (static final)&lt;/span&gt;&lt;span style=&quot;background-color: initial;&quot;&gt;&lt;br&gt;&lt;/span&gt;&lt;/p&gt;&lt;p style=&quot;margin:0px;margin-left:4px;&quot;&gt;- CHANNEL_NAME: String (static final)&lt;/p&gt;&lt;p style=&quot;margin:0px;margin-left:4px;&quot;&gt;- CHANNEL_DESCRIPTION: String (static final)&lt;/p&gt;&lt;p style=&quot;margin:0px;margin-left:4px;&quot;&gt;- context: Context&lt;/p&gt;&lt;hr size=&quot;1&quot; style=&quot;border-style:solid;&quot;&gt;&lt;p style=&quot;margin:0px;margin-left:4px;&quot;&gt;&lt;span style=&quot;background-color: initial;&quot;&gt;+ NotificationHelper(Context context): void&lt;/span&gt;&lt;/p&gt;&lt;p style=&quot;margin:0px;margin-left:4px;&quot;&gt;- createNotificationChannel(): void&lt;/p&gt;&lt;p style=&quot;margin:0px;margin-left:4px;&quot;&gt;+ sendHighPowerUsageNotification(String title, String message): void&lt;/p&gt;&lt;p style=&quot;margin:0px;margin-left:4px;&quot;&gt;- getNotificationId(): int&lt;/p&gt;&lt;div&gt;&lt;br&gt;&lt;/div&gt;&lt;h3&gt;&lt;/h3&gt;" style="verticalAlign=top;align=left;overflow=fill;html=1;whiteSpace=wrap;fillColor=#dae8fc;strokeColor=#6c8ebf;" vertex="1" parent="1">
          <mxGeometry x="-309" y="-556" width="309" height="303" as="geometry" />
        </mxCell>
        <mxCell id="b-kxwEwmXriyLvLz8vZ1-10" value="&lt;p style=&quot;margin: 4px 0px 0px; text-align: center;&quot;&gt;&lt;code&gt;&lt;b&gt;&lt;font face=&quot;Helvetica&quot;&gt;DatabaseHelper&lt;/font&gt;&lt;/b&gt;&lt;/code&gt;&lt;/p&gt;&lt;hr size=&quot;1&quot; style=&quot;border-style:solid;&quot;&gt;&lt;p style=&quot;margin:0px;margin-left:4px;&quot;&gt;&lt;span style=&quot;background-color: initial;&quot;&gt;- DATABASE_NAME: String&lt;/span&gt;&lt;span style=&quot;background-color: initial;&quot;&gt;&lt;br&gt;&lt;/span&gt;&lt;/p&gt;&lt;p style=&quot;margin:0px;margin-left:4px;&quot;&gt;- DATABASE_VERSION: int&lt;/p&gt;&lt;p style=&quot;margin:0px;margin-left:4px;&quot;&gt;- TABLE_USERS: String&lt;/p&gt;&lt;p style=&quot;margin:0px;margin-left:4px;&quot;&gt;- COLUMN_ID: String&lt;/p&gt;&lt;p style=&quot;margin:0px;margin-left:4px;&quot;&gt;- COLUMN_USERNAME: String&lt;/p&gt;&lt;p style=&quot;margin:0px;margin-left:4px;&quot;&gt;- COLUMN_PASSWORD: String&lt;/p&gt;&lt;p style=&quot;margin:0px;margin-left:4px;&quot;&gt;- COLUMN_NAME: String&lt;/p&gt;&lt;p style=&quot;margin:0px;margin-left:4px;&quot;&gt;- COLUMN_EMAIL: String&lt;/p&gt;&lt;p style=&quot;margin:0px;margin-left:4px;&quot;&gt;- COLUMN_IS_ADMIN: String&lt;/p&gt;&lt;p style=&quot;margin:0px;margin-left:4px;&quot;&gt;- COLUMN_CONTACT: String&lt;/p&gt;&lt;p style=&quot;margin:0px;margin-left:4px;&quot;&gt;- COLUMN_ADDRESS: String&lt;/p&gt;&lt;p style=&quot;margin:0px;margin-left:4px;&quot;&gt;&lt;br&gt;&lt;/p&gt;&lt;p style=&quot;margin:0px;margin-left:4px;&quot;&gt;- TABLE_DEVICES: String&lt;/p&gt;&lt;p style=&quot;margin:0px;margin-left:4px;&quot;&gt;- COLUMN_DEVICE_ID: String&lt;/p&gt;&lt;p style=&quot;margin:0px;margin-left:4px;&quot;&gt;- COLUMN_DEVICE_NAME: String&lt;/p&gt;&lt;p style=&quot;margin:0px;margin-left:4px;&quot;&gt;- COLUMN_POWER_USAGE: String&lt;/p&gt;&lt;p style=&quot;margin:0px;margin-left:4px;&quot;&gt;- COLUMN_DURATION: String&lt;/p&gt;&lt;p style=&quot;margin:0px;margin-left:4px;&quot;&gt;- COLUMN_DEVICE_USER_ID: String&lt;/p&gt;&lt;p style=&quot;margin:0px;margin-left:4px;&quot;&gt;&lt;br&gt;&lt;/p&gt;&lt;p style=&quot;margin:0px;margin-left:4px;&quot;&gt;- TABLE_APPLIANCE_RATINGS: String&lt;/p&gt;&lt;p style=&quot;margin:0px;margin-left:4px;&quot;&gt;- COLUMN_APPLIANCE_ID: String&lt;/p&gt;&lt;p style=&quot;margin:0px;margin-left:4px;&quot;&gt;- COLUMN_APPLIANCE_NAME: String&lt;/p&gt;&lt;p style=&quot;margin:0px;margin-left:4px;&quot;&gt;- COLUMN_POWER_RATING: String&lt;/p&gt;&lt;div&gt;&lt;br&gt;&lt;/div&gt;&lt;hr size=&quot;1&quot; style=&quot;border-style:solid;&quot;&gt;&lt;p style=&quot;margin:0px;margin-left:4px;&quot;&gt;&lt;span style=&quot;background-color: initial;&quot;&gt;+ onCreate(SQLiteDatabase db): void&lt;/span&gt;&lt;/p&gt;&lt;p style=&quot;margin:0px;margin-left:4px;&quot;&gt;+ onUpgrade(SQLiteDatabase db, int oldVersion, int newVersion): void&lt;/p&gt;&lt;p style=&quot;margin:0px;margin-left:4px;&quot;&gt;&lt;br&gt;&lt;/p&gt;&lt;p style=&quot;margin:0px;margin-left:4px;&quot;&gt;+ getUserEmail(int userID): String&lt;/p&gt;&lt;p style=&quot;margin:0px;margin-left:4px;&quot;&gt;+ addOrUpdateAppliance(Appliance appliance): boolean&lt;/p&gt;&lt;p style=&quot;margin:0px;margin-left:4px;&quot;&gt;+ removeAppliance(int applianceId): void&lt;/p&gt;&lt;p style=&quot;margin:0px;margin-left:4px;&quot;&gt;+ updateDeviceDuration(int deviceID, String deviceName, int newDuration, int usage): boolean&lt;/p&gt;&lt;p style=&quot;margin:0px;margin-left:4px;&quot;&gt;+ addDevice(Device device): boolean&lt;/p&gt;&lt;p style=&quot;margin:0px;margin-left:4px;&quot;&gt;+ removeDevice(String deviceName): boolean&lt;/p&gt;&lt;p style=&quot;margin:0px;margin-left:4px;&quot;&gt;+ removeDevice(int deviceID): boolean&lt;/p&gt;&lt;p style=&quot;margin:0px;margin-left:4px;&quot;&gt;+ removeDevice(int deviceID, int ownerUserID): boolean&lt;/p&gt;&lt;p style=&quot;margin:0px;margin-left:4px;&quot;&gt;+ getAllDevices(): Cursor&lt;/p&gt;&lt;p style=&quot;margin:0px;margin-left:4px;&quot;&gt;+ getAllDevicesObj(): ArrayList&amp;lt;Device&amp;gt;&lt;/p&gt;&lt;p style=&quot;margin:0px;margin-left:4px;&quot;&gt;+ getDevicesByUser(int userID): ArrayList&amp;lt;Device&amp;gt;&lt;/p&gt;&lt;p style=&quot;margin:0px;margin-left:4px;&quot;&gt;&lt;br&gt;&lt;/p&gt;&lt;p style=&quot;margin:0px;margin-left:4px;&quot;&gt;+ addUser(String username, String password, boolean isAdmin, String name, String email): boolean&lt;/p&gt;&lt;p style=&quot;margin:0px;margin-left:4px;&quot;&gt;+ addUser(User user): boolean&lt;/p&gt;&lt;p style=&quot;margin:0px;margin-left:4px;&quot;&gt;+ updateUserAccountDetails(String currentUsername, String newUsername, String newPassword, String newName, String newEmail): boolean&lt;/p&gt;&lt;p style=&quot;margin:0px;margin-left:4px;&quot;&gt;+ updateUserAccountDetails(String currentUsername, User newUser): boolean&lt;/p&gt;&lt;p style=&quot;margin:0px;margin-left:4px;&quot;&gt;+ checkUser(String username, String password): boolean&lt;/p&gt;&lt;p style=&quot;margin:0px;margin-left:4px;&quot;&gt;+ getCheckedUserID(String username, String password): int&lt;/p&gt;&lt;p style=&quot;margin:0px;margin-left:4px;&quot;&gt;+ checkAdminLogin(String username, String password): boolean&lt;/p&gt;&lt;p style=&quot;margin:0px;margin-left:4px;&quot;&gt;+ updatePassword(String username, String newPassword): boolean&lt;/p&gt;&lt;p style=&quot;margin:0px;margin-left:4px;&quot;&gt;+ validateUserInfo(String username, String email): boolean&lt;/p&gt;&lt;p style=&quot;margin:0px;margin-left:4px;&quot;&gt;+ isAdminExists(): boolean&lt;/p&gt;&lt;p style=&quot;margin:0px;margin-left:4px;&quot;&gt;+ getAllUsers(): Cursor&lt;/p&gt;&lt;p style=&quot;margin:0px;margin-left:4px;&quot;&gt;+ getAllUserObj(): ArrayList&amp;lt;User&amp;gt;&lt;/p&gt;&lt;p style=&quot;margin:0px;margin-left:4px;&quot;&gt;+ getUserByUsername(String username): User&lt;/p&gt;&lt;p style=&quot;margin:0px;margin-left:4px;&quot;&gt;+ uniqueUsernameCheck(String username): boolean&lt;/p&gt;&lt;p style=&quot;margin:0px;margin-left:4px;&quot;&gt;&lt;br&gt;&lt;/p&gt;&lt;p style=&quot;margin:0px;margin-left:4px;&quot;&gt;+ addOrUpdateApplianceRating(String applianceName, int powerRating): boolean&lt;/p&gt;&lt;p style=&quot;margin:0px;margin-left:4px;&quot;&gt;+ getAllAppliances(): ArrayList&amp;lt;Appliance&amp;gt;&lt;/p&gt;&lt;p style=&quot;margin:0px;margin-left:4px;&quot;&gt;+ deleteAppliance(String applianceName): boolean&lt;/p&gt;&lt;div&gt;&lt;br&gt;&lt;/div&gt;&lt;h3&gt;&lt;/h3&gt;" style="verticalAlign=top;align=left;overflow=fill;html=1;whiteSpace=wrap;fillColor=#dae8fc;strokeColor=#6c8ebf;" vertex="1" parent="1">
          <mxGeometry x="181" y="-1183" width="408" height="956" as="geometry" />
        </mxCell>
        <mxCell id="b-kxwEwmXriyLvLz8vZ1-11" value="&lt;p style=&quot;margin: 4px 0px 0px; text-align: center;&quot;&gt;&lt;b&gt;LoginSelectionActivity&lt;/b&gt;&lt;/p&gt;&lt;hr size=&quot;1&quot; style=&quot;border-style:solid;&quot;&gt;&lt;p style=&quot;margin:0px;margin-left:4px;&quot;&gt;&lt;span style=&quot;background-color: initial;&quot;&gt;- userLoginButton: Button&lt;/span&gt;&lt;span style=&quot;background-color: initial;&quot;&gt;&lt;br&gt;&lt;/span&gt;&lt;/p&gt;&lt;p style=&quot;margin:0px;margin-left:4px;&quot;&gt;- adminLoginButton: Button&lt;/p&gt;&lt;div&gt;&lt;br&gt;&lt;/div&gt;&lt;hr size=&quot;1&quot; style=&quot;border-style:solid;&quot;&gt;&lt;p style=&quot;margin:0px;margin-left:4px;&quot;&gt;&lt;span style=&quot;background-color: initial;&quot;&gt;+ onCreate(Bundle savedInstanceState): void&lt;/span&gt;&lt;/p&gt;&lt;div&gt;&lt;span style=&quot;background-color: initial;&quot;&gt;&lt;br&gt;&lt;/span&gt;&lt;/div&gt;&lt;h3&gt;&lt;/h3&gt;" style="verticalAlign=top;align=left;overflow=fill;html=1;whiteSpace=wrap;fillColor=#e1d5e7;strokeColor=#9673a6;" vertex="1" parent="1">
          <mxGeometry x="2267" y="-1239" width="300" height="193" as="geometry" />
        </mxCell>
        <mxCell id="b-kxwEwmXriyLvLz8vZ1-12" value="&lt;p style=&quot;margin:0px;margin-top:4px;text-align:center;&quot;&gt;&lt;span style=&quot;background-color: initial; text-align: left;&quot;&gt;&lt;b&gt;ResetPasswordActivity&amp;nbsp;&lt;/b&gt;&lt;/span&gt;&lt;/p&gt;&lt;hr size=&quot;1&quot; style=&quot;border-style:solid;&quot;&gt;&lt;p style=&quot;margin:0px;margin-left:4px;&quot;&gt;- etUsername: EditText&lt;/p&gt;&lt;p style=&quot;margin:0px;margin-left:4px;&quot;&gt;- etPassword: EditText&lt;/p&gt;&lt;p style=&quot;margin:0px;margin-left:4px;&quot;&gt;- etName: EditText&lt;/p&gt;&lt;p style=&quot;margin:0px;margin-left:4px;&quot;&gt;- etEmail: EditText&lt;/p&gt;&lt;p style=&quot;margin:0px;margin-left:4px;&quot;&gt;- btnRegister: Button&lt;/p&gt;&lt;p style=&quot;margin:0px;margin-left:4px;&quot;&gt;- btnBack: Button&lt;/p&gt;&lt;p style=&quot;margin:0px;margin-left:4px;&quot;&gt;- dbHelper: DatabaseHelper&lt;/p&gt;&lt;hr size=&quot;1&quot; style=&quot;border-style:solid;&quot;&gt;&lt;p style=&quot;margin:0px;margin-left:4px;&quot;&gt;+ onCreate(&lt;span style=&quot;background-color: initial;&quot;&gt;savedInstanceState:&amp;nbsp;&lt;/span&gt;&lt;span style=&quot;background-color: initial;&quot;&gt;Bundle&lt;/span&gt;): void&lt;/p&gt;" style="verticalAlign=top;align=left;overflow=fill;html=1;whiteSpace=wrap;fillColor=#e1d5e7;strokeColor=#9673a6;" vertex="1" parent="1">
          <mxGeometry x="1338" y="-953" width="300" height="166" as="geometry" />
        </mxCell>
        <mxCell id="b-kxwEwmXriyLvLz8vZ1-14" value="&lt;p style=&quot;margin: 4px 0px 0px; text-align: center;&quot;&gt;&lt;code&gt;&lt;strong style=&quot;background-color: initial; text-align: left;&quot;&gt;&lt;code style=&quot;&quot;&gt;&lt;font face=&quot;Helvetica&quot;&gt;ApplianceAdapter&lt;/font&gt;&lt;/code&gt;&lt;/strong&gt;&lt;/code&gt;&lt;/p&gt;&lt;hr size=&quot;1&quot; style=&quot;border-style:solid;&quot;&gt;&lt;p style=&quot;margin:0px;margin-left:4px;&quot;&gt;&lt;span style=&quot;background-color: initial;&quot;&gt;-&amp;nbsp;&lt;/span&gt;&lt;span style=&quot;background-color: initial;&quot;&gt;&amp;nbsp;context: Context&lt;/span&gt;&lt;/p&gt;&lt;p style=&quot;margin:0px;margin-left:4px;&quot;&gt;- applianceList: List&amp;lt;Appliance&amp;gt;&lt;/p&gt;&lt;p style=&quot;margin:0px;margin-left:4px;&quot;&gt;- dbHelper: DatabaseHelper&lt;/p&gt;&lt;hr size=&quot;1&quot; style=&quot;border-style:solid;&quot;&gt;&lt;p style=&quot;margin:0px;margin-left:4px;&quot;&gt;&lt;span style=&quot;background-color: initial;&quot;&gt;+ ApplianceAdapter(Context context, List&amp;lt;Appliance&amp;gt; applianceList, DatabaseHelper dbHelper): void&lt;/span&gt;&lt;/p&gt;&lt;p style=&quot;margin:0px;margin-left:4px;&quot;&gt;+ onCreateViewHolder(@NonNull ViewGroup parent, int viewType): ViewHolder&lt;/p&gt;&lt;p style=&quot;margin:0px;margin-left:4px;&quot;&gt;+ onBindViewHolder(@NonNull ViewHolder holder, int position): void&lt;/p&gt;&lt;p style=&quot;margin:0px;margin-left:4px;&quot;&gt;+ getItemCount(): int&lt;/p&gt;&lt;div&gt;&lt;br&gt;&lt;/div&gt;&lt;h3&gt;&lt;/h3&gt;" style="verticalAlign=top;align=left;overflow=fill;html=1;whiteSpace=wrap;fillColor=#dae8fc;strokeColor=#6c8ebf;" vertex="1" parent="1">
          <mxGeometry x="648" y="-244" width="408" height="182" as="geometry" />
        </mxCell>
        <mxCell id="b-kxwEwmXriyLvLz8vZ1-15" value="Admin-boundary" style="shape=umlFrame;whiteSpace=wrap;html=1;pointerEvents=0;fillColor=#e1d5e7;strokeColor=#9673a6;width=91;height=36;" vertex="1" parent="1">
          <mxGeometry x="1282" y="-398" width="1951" height="920" as="geometry" />
        </mxCell>
        <mxCell id="b-kxwEwmXriyLvLz8vZ1-16" value="User-boundary" style="shape=umlFrame;whiteSpace=wrap;html=1;pointerEvents=0;fillColor=#e1d5e7;strokeColor=#9673a6;width=97;height=44;" vertex="1" parent="1">
          <mxGeometry x="1253" y="-2179" width="2092" height="1667" as="geometry" />
        </mxCell>
        <mxCell id="b-kxwEwmXriyLvLz8vZ1-18" value="Object" style="shape=umlFrame;whiteSpace=wrap;html=1;pointerEvents=0;fillColor=#fff2cc;strokeColor=#d6b656;width=91;height=36;" vertex="1" parent="1">
          <mxGeometry x="-238" y="4" width="1279" height="785" as="geometry" />
        </mxCell>
        <mxCell id="b-kxwEwmXriyLvLz8vZ1-20" value="Controller" style="shape=umlFrame;whiteSpace=wrap;html=1;pointerEvents=0;fillColor=#dae8fc;strokeColor=#6c8ebf;width=91;height=36;" vertex="1" parent="1">
          <mxGeometry x="-506" y="-1499" width="1622" height="1463" as="geometry" />
        </mxCell>
        <mxCell id="b-kxwEwmXriyLvLz8vZ1-22" value="&amp;lt;&amp;lt;use&amp;gt;&amp;gt;" style="endArrow=open;html=1;rounded=0;align=center;verticalAlign=bottom;dashed=1;endFill=0;labelBackgroundColor=none;exitX=0.5;exitY=1;exitDx=0;exitDy=0;entryX=0.5;entryY=0;entryDx=0;entryDy=0;" edge="1" parent="1" source="b-kxwEwmXriyLvLz8vZ1-10" target="_qHGbEw9CiUlLCKPYibO-9">
          <mxGeometry relative="1" as="geometry">
            <mxPoint x="583" y="63" as="sourcePoint" />
            <mxPoint x="743" y="63" as="targetPoint" />
          </mxGeometry>
        </mxCell>
        <mxCell id="b-kxwEwmXriyLvLz8vZ1-23" value="" style="resizable=0;html=1;align=center;verticalAlign=top;labelBackgroundColor=none;" connectable="0" vertex="1" parent="b-kxwEwmXriyLvLz8vZ1-22">
          <mxGeometry relative="1" as="geometry" />
        </mxCell>
        <mxCell id="b-kxwEwmXriyLvLz8vZ1-24" value="&amp;lt;&amp;lt;use&amp;gt;&amp;gt;" style="endArrow=open;html=1;rounded=0;align=center;verticalAlign=bottom;dashed=1;endFill=0;labelBackgroundColor=none;exitX=0.25;exitY=1;exitDx=0;exitDy=0;entryX=0.5;entryY=0;entryDx=0;entryDy=0;" edge="1" parent="1" source="b-kxwEwmXriyLvLz8vZ1-10" target="ooXpMAyMFkbcJkBeO3l_-2">
          <mxGeometry relative="1" as="geometry">
            <mxPoint x="190" y="-215" as="sourcePoint" />
            <mxPoint x="190" y="58" as="targetPoint" />
            <Array as="points">
              <mxPoint x="173" y="92" />
            </Array>
          </mxGeometry>
        </mxCell>
        <mxCell id="b-kxwEwmXriyLvLz8vZ1-25" value="" style="resizable=0;html=1;align=center;verticalAlign=top;labelBackgroundColor=none;" connectable="0" vertex="1" parent="b-kxwEwmXriyLvLz8vZ1-24">
          <mxGeometry relative="1" as="geometry" />
        </mxCell>
        <mxCell id="b-kxwEwmXriyLvLz8vZ1-26" value="&amp;lt;&amp;lt;use&amp;gt;&amp;gt;" style="endArrow=open;html=1;rounded=0;align=center;verticalAlign=bottom;dashed=1;endFill=0;labelBackgroundColor=none;exitX=0.75;exitY=1;exitDx=0;exitDy=0;entryX=0.5;entryY=0;entryDx=0;entryDy=0;" edge="1" parent="1" source="b-kxwEwmXriyLvLz8vZ1-10" target="_qHGbEw9CiUlLCKPYibO-5">
          <mxGeometry relative="1" as="geometry">
            <mxPoint x="395" y="-217" as="sourcePoint" />
            <mxPoint x="395" y="56" as="targetPoint" />
          </mxGeometry>
        </mxCell>
        <mxCell id="b-kxwEwmXriyLvLz8vZ1-27" value="" style="resizable=0;html=1;align=center;verticalAlign=top;labelBackgroundColor=none;" connectable="0" vertex="1" parent="b-kxwEwmXriyLvLz8vZ1-26">
          <mxGeometry relative="1" as="geometry" />
        </mxCell>
        <mxCell id="b-kxwEwmXriyLvLz8vZ1-28" value="" style="endArrow=none;startArrow=diamondThin;endFill=0;startFill=0;html=1;verticalAlign=bottom;labelBackgroundColor=none;strokeWidth=1;startSize=8;endSize=8;rounded=0;exitX=0.25;exitY=0;exitDx=0;exitDy=0;entryX=0.998;entryY=0.852;entryDx=0;entryDy=0;entryPerimeter=0;" edge="1" parent="1" source="b-kxwEwmXriyLvLz8vZ1-14" target="b-kxwEwmXriyLvLz8vZ1-10">
          <mxGeometry width="160" relative="1" as="geometry">
            <mxPoint x="649" y="-149" as="sourcePoint" />
            <mxPoint x="800" y="-247" as="targetPoint" />
            <Array as="points">
              <mxPoint x="750" y="-368" />
            </Array>
          </mxGeometry>
        </mxCell>
        <mxCell id="b-kxwEwmXriyLvLz8vZ1-29" value="&amp;lt;&amp;lt;use&amp;gt;&amp;gt;" style="endArrow=open;html=1;rounded=0;align=center;verticalAlign=bottom;dashed=1;endFill=0;labelBackgroundColor=none;exitX=1;exitY=0.5;exitDx=0;exitDy=0;strokeColor=default;entryX=1;entryY=0.5;entryDx=0;entryDy=0;" edge="1" parent="1" source="8NUegigZWreO3T-o1tuZ-17" target="_qHGbEw9CiUlLCKPYibO-5">
          <mxGeometry x="0.5493" relative="1" as="geometry">
            <mxPoint x="1316" y="-1309" as="sourcePoint" />
            <mxPoint x="1191" y="338" as="targetPoint" />
            <Array as="points">
              <mxPoint x="1156" y="-1336" />
              <mxPoint x="1156" y="506" />
            </Array>
            <mxPoint y="-1" as="offset" />
          </mxGeometry>
        </mxCell>
        <mxCell id="b-kxwEwmXriyLvLz8vZ1-30" value="" style="resizable=0;html=1;align=center;verticalAlign=top;labelBackgroundColor=none;" connectable="0" vertex="1" parent="b-kxwEwmXriyLvLz8vZ1-29">
          <mxGeometry relative="1" as="geometry" />
        </mxCell>
        <mxCell id="b-kxwEwmXriyLvLz8vZ1-32" value="&amp;lt;&amp;lt;use&amp;gt;&amp;gt;" style="endArrow=open;html=1;rounded=0;align=center;verticalAlign=bottom;dashed=1;endFill=0;labelBackgroundColor=none;exitX=0;exitY=0.5;exitDx=0;exitDy=0;entryX=0.25;entryY=0;entryDx=0;entryDy=0;" edge="1" parent="1" source="b-kxwEwmXriyLvLz8vZ1-14" target="ooXpMAyMFkbcJkBeO3l_-2">
          <mxGeometry relative="1" as="geometry">
            <mxPoint x="677" y="-185" as="sourcePoint" />
            <mxPoint x="470" y="420" as="targetPoint" />
            <Array as="points">
              <mxPoint x="15" y="-153" />
            </Array>
          </mxGeometry>
        </mxCell>
        <mxCell id="b-kxwEwmXriyLvLz8vZ1-33" value="" style="resizable=0;html=1;align=center;verticalAlign=top;labelBackgroundColor=none;" connectable="0" vertex="1" parent="b-kxwEwmXriyLvLz8vZ1-32">
          <mxGeometry relative="1" as="geometry" />
        </mxCell>
        <mxCell id="b-kxwEwmXriyLvLz8vZ1-34" value="" style="endArrow=none;startArrow=diamondThin;endFill=0;startFill=0;html=1;verticalAlign=bottom;labelBackgroundColor=none;strokeWidth=1;startSize=8;endSize=8;rounded=0;exitX=0.25;exitY=0;exitDx=0;exitDy=0;entryX=1;entryY=0.75;entryDx=0;entryDy=0;" edge="1" parent="1" source="ooXpMAyMFkbcJkBeO3l_-3" target="b-kxwEwmXriyLvLz8vZ1-10">
          <mxGeometry width="160" relative="1" as="geometry">
            <mxPoint x="803" y="-243" as="sourcePoint" />
            <mxPoint x="598" y="-358" as="targetPoint" />
            <Array as="points">
              <mxPoint x="1632" y="-466" />
            </Array>
          </mxGeometry>
        </mxCell>
        <mxCell id="b-kxwEwmXriyLvLz8vZ1-35" value="" style="endArrow=none;startArrow=diamondThin;endFill=0;startFill=0;html=1;verticalAlign=bottom;labelBackgroundColor=none;strokeWidth=1;startSize=8;endSize=8;rounded=0;exitX=0;exitY=0.25;exitDx=0;exitDy=0;entryX=0.5;entryY=0;entryDx=0;entryDy=0;" edge="1" parent="1" source="ooXpMAyMFkbcJkBeO3l_-3" target="b-kxwEwmXriyLvLz8vZ1-14">
          <mxGeometry width="160" relative="1" as="geometry">
            <mxPoint x="1389" y="-356" as="sourcePoint" />
            <mxPoint x="203" y="-271" as="targetPoint" />
            <Array as="points">
              <mxPoint x="852" y="-347" />
            </Array>
          </mxGeometry>
        </mxCell>
        <mxCell id="b-kxwEwmXriyLvLz8vZ1-37" value="" style="endArrow=none;startArrow=diamondThin;endFill=0;startFill=0;html=1;verticalAlign=bottom;labelBackgroundColor=none;strokeWidth=1;startSize=8;endSize=8;rounded=0;exitX=0;exitY=0.75;exitDx=0;exitDy=0;" edge="1" parent="1" source="8NUegigZWreO3T-o1tuZ-1">
          <mxGeometry width="160" relative="1" as="geometry">
            <mxPoint x="1557" y="-5.0000000000009095" as="sourcePoint" />
            <mxPoint x="486" y="-222" as="targetPoint" />
            <Array as="points">
              <mxPoint x="486" y="-40" />
            </Array>
          </mxGeometry>
        </mxCell>
        <mxCell id="b-kxwEwmXriyLvLz8vZ1-38" value="" style="endArrow=none;startArrow=diamondThin;endFill=0;startFill=0;html=1;verticalAlign=bottom;labelBackgroundColor=none;strokeWidth=1;startSize=8;endSize=8;rounded=0;exitX=0;exitY=0.25;exitDx=0;exitDy=0;entryX=0.609;entryY=0.999;entryDx=0;entryDy=0;entryPerimeter=0;" edge="1" parent="1" source="8NUegigZWreO3T-o1tuZ-3" target="b-kxwEwmXriyLvLz8vZ1-10">
          <mxGeometry width="160" relative="1" as="geometry">
            <mxPoint x="2043" y="-30" as="sourcePoint" />
            <mxPoint x="496" y="-212" as="targetPoint" />
            <Array as="points">
              <mxPoint x="423" y="202" />
            </Array>
          </mxGeometry>
        </mxCell>
        <mxCell id="b-kxwEwmXriyLvLz8vZ1-39" value="" style="endArrow=none;startArrow=diamondThin;endFill=0;startFill=0;html=1;verticalAlign=bottom;labelBackgroundColor=none;strokeWidth=1;startSize=8;endSize=8;rounded=0;exitX=0.5;exitY=0;exitDx=0;exitDy=0;entryX=0.649;entryY=0.996;entryDx=0;entryDy=0;entryPerimeter=0;" edge="1" parent="1" source="b-kxwEwmXriyLvLz8vZ1-2" target="b-kxwEwmXriyLvLz8vZ1-10">
          <mxGeometry width="160" relative="1" as="geometry">
            <mxPoint x="1590" y="213" as="sourcePoint" />
            <mxPoint x="439" y="-218" as="targetPoint" />
            <Array as="points">
              <mxPoint x="2264" y="115" />
              <mxPoint x="446" y="115" />
            </Array>
          </mxGeometry>
        </mxCell>
        <mxCell id="b-kxwEwmXriyLvLz8vZ1-40" value="" style="endArrow=none;startArrow=diamondThin;endFill=0;startFill=0;html=1;verticalAlign=bottom;labelBackgroundColor=none;strokeWidth=1;startSize=8;endSize=8;rounded=0;entryX=1.001;entryY=0.722;entryDx=0;entryDy=0;entryPerimeter=0;exitX=0.5;exitY=0;exitDx=0;exitDy=0;" edge="1" parent="1" source="8NUegigZWreO3T-o1tuZ-4" target="b-kxwEwmXriyLvLz8vZ1-10">
          <mxGeometry width="160" relative="1" as="geometry">
            <mxPoint x="1642" y="-377" as="sourcePoint" />
            <mxPoint x="599" y="-456" as="targetPoint" />
            <Array as="points">
              <mxPoint x="2190" y="-493" />
            </Array>
          </mxGeometry>
        </mxCell>
        <mxCell id="b-kxwEwmXriyLvLz8vZ1-41" value="" style="endArrow=none;startArrow=diamondThin;endFill=0;startFill=0;html=1;verticalAlign=bottom;labelBackgroundColor=none;strokeWidth=1;startSize=8;endSize=8;rounded=0;entryX=1.005;entryY=0.803;entryDx=0;entryDy=0;entryPerimeter=0;exitX=0.5;exitY=0;exitDx=0;exitDy=0;" edge="1" parent="1" source="b-kxwEwmXriyLvLz8vZ1-4" target="b-kxwEwmXriyLvLz8vZ1-10">
          <mxGeometry width="160" relative="1" as="geometry">
            <mxPoint x="2200" y="-368" as="sourcePoint" />
            <mxPoint x="599" y="-483" as="targetPoint" />
            <Array as="points">
              <mxPoint x="2818" y="-409" />
            </Array>
          </mxGeometry>
        </mxCell>
        <mxCell id="b-kxwEwmXriyLvLz8vZ1-42" value="" style="endArrow=none;startArrow=diamondThin;endFill=0;startFill=0;html=1;verticalAlign=bottom;labelBackgroundColor=none;strokeWidth=1;startSize=8;endSize=8;rounded=0;exitX=0.5;exitY=1;exitDx=0;exitDy=0;entryX=0.5;entryY=1;entryDx=0;entryDy=0;" edge="1" parent="1" source="b-kxwEwmXriyLvLz8vZ1-4" target="b-kxwEwmXriyLvLz8vZ1-14">
          <mxGeometry width="160" relative="1" as="geometry">
            <mxPoint x="1567" y="-332" as="sourcePoint" />
            <mxPoint x="862" y="-234" as="targetPoint" />
            <Array as="points">
              <mxPoint x="2818" y="63" />
              <mxPoint x="852" y="68" />
            </Array>
          </mxGeometry>
        </mxCell>
        <mxCell id="b-kxwEwmXriyLvLz8vZ1-43" value="" style="endArrow=none;startArrow=diamondThin;endFill=0;startFill=0;html=1;verticalAlign=bottom;labelBackgroundColor=none;strokeWidth=1;startSize=8;endSize=8;rounded=0;exitX=0.5;exitY=0;exitDx=0;exitDy=0;entryX=0.65;entryY=1.001;entryDx=0;entryDy=0;entryPerimeter=0;" edge="1" parent="1" source="8NUegigZWreO3T-o1tuZ-2" target="b-kxwEwmXriyLvLz8vZ1-10">
          <mxGeometry width="160" relative="1" as="geometry">
            <mxPoint x="2276" y="151" as="sourcePoint" />
            <mxPoint x="477" y="-235" as="targetPoint" />
            <Array as="points">
              <mxPoint x="2830" y="115" />
              <mxPoint x="447" y="115" />
            </Array>
          </mxGeometry>
        </mxCell>
        <mxCell id="b-kxwEwmXriyLvLz8vZ1-44" value="" style="endArrow=none;startArrow=diamondThin;endFill=0;startFill=0;html=1;verticalAlign=bottom;labelBackgroundColor=none;strokeWidth=1;startSize=8;endSize=8;rounded=0;exitX=0;exitY=0.25;exitDx=0;exitDy=0;entryX=1.006;entryY=0.473;entryDx=0;entryDy=0;entryPerimeter=0;" edge="1" parent="1" source="8NUegigZWreO3T-o1tuZ-25" target="b-kxwEwmXriyLvLz8vZ1-10">
          <mxGeometry width="160" relative="1" as="geometry">
            <mxPoint x="1642" y="-377" as="sourcePoint" />
            <mxPoint x="599" y="-456" as="targetPoint" />
            <Array as="points" />
          </mxGeometry>
        </mxCell>
        <mxCell id="b-kxwEwmXriyLvLz8vZ1-45" value="" style="endArrow=none;startArrow=diamondThin;endFill=0;startFill=0;html=1;verticalAlign=bottom;labelBackgroundColor=none;strokeWidth=1;startSize=8;endSize=8;rounded=0;exitX=0;exitY=0.5;exitDx=0;exitDy=0;entryX=1.013;entryY=0.324;entryDx=0;entryDy=0;entryPerimeter=0;" edge="1" parent="1" source="b-kxwEwmXriyLvLz8vZ1-12" target="b-kxwEwmXriyLvLz8vZ1-10">
          <mxGeometry width="160" relative="1" as="geometry">
            <mxPoint x="1363" y="-897" as="sourcePoint" />
            <mxPoint x="603" y="-908" as="targetPoint" />
            <Array as="points" />
          </mxGeometry>
        </mxCell>
        <mxCell id="b-kxwEwmXriyLvLz8vZ1-46" value="" style="endArrow=none;startArrow=diamondThin;endFill=0;startFill=0;html=1;verticalAlign=bottom;labelBackgroundColor=none;strokeWidth=1;startSize=8;endSize=8;rounded=0;exitX=0;exitY=0.5;exitDx=0;exitDy=0;entryX=0.996;entryY=0.102;entryDx=0;entryDy=0;entryPerimeter=0;" edge="1" parent="1" source="8NUegigZWreO3T-o1tuZ-26" target="b-kxwEwmXriyLvLz8vZ1-10">
          <mxGeometry width="160" relative="1" as="geometry">
            <mxPoint x="1348" y="-860" as="sourcePoint" />
            <mxPoint x="604" y="-863" as="targetPoint" />
            <Array as="points" />
          </mxGeometry>
        </mxCell>
        <mxCell id="b-kxwEwmXriyLvLz8vZ1-48" value="" style="endArrow=none;startArrow=diamondThin;endFill=0;startFill=0;html=1;verticalAlign=bottom;labelBackgroundColor=none;strokeWidth=1;startSize=8;endSize=8;rounded=0;exitX=0.5;exitY=1;exitDx=0;exitDy=0;entryX=1;entryY=0;entryDx=0;entryDy=0;" edge="1" parent="1" source="8NUegigZWreO3T-o1tuZ-22" target="b-kxwEwmXriyLvLz8vZ1-10">
          <mxGeometry width="160" relative="1" as="geometry">
            <mxPoint x="1354" y="-1071" as="sourcePoint" />
            <mxPoint x="597" y="-1075" as="targetPoint" />
            <Array as="points">
              <mxPoint x="1507" y="-1183" />
            </Array>
          </mxGeometry>
        </mxCell>
        <mxCell id="b-kxwEwmXriyLvLz8vZ1-49" value="" style="endArrow=none;startArrow=diamondThin;endFill=0;startFill=0;html=1;verticalAlign=bottom;labelBackgroundColor=none;strokeWidth=1;startSize=8;endSize=8;rounded=0;exitX=-0.009;exitY=0.355;exitDx=0;exitDy=0;entryX=0.75;entryY=0;entryDx=0;entryDy=0;exitPerimeter=0;" edge="1" parent="1" source="8NUegigZWreO3T-o1tuZ-22" target="b-kxwEwmXriyLvLz8vZ1-8">
          <mxGeometry width="160" relative="1" as="geometry">
            <mxPoint x="1517" y="-1237" as="sourcePoint" />
            <mxPoint x="-494" y="-529" as="targetPoint" />
            <Array as="points">
              <mxPoint x="824" y="-1544" />
              <mxPoint x="-85" y="-1551" />
            </Array>
          </mxGeometry>
        </mxCell>
        <mxCell id="b-kxwEwmXriyLvLz8vZ1-51" value="" style="endArrow=none;startArrow=diamondThin;endFill=0;startFill=0;html=1;verticalAlign=bottom;labelBackgroundColor=none;strokeWidth=1;startSize=8;endSize=8;rounded=0;exitX=0;exitY=0.5;exitDx=0;exitDy=0;entryX=0.416;entryY=0.034;entryDx=0;entryDy=0;entryPerimeter=0;" edge="1" parent="1" source="tvtKjg2gaKu45afXB-1r-1" target="8NUegigZWreO3T-o1tuZ-17">
          <mxGeometry width="160" relative="1" as="geometry">
            <mxPoint x="1349" y="-1539" as="sourcePoint" />
            <mxPoint x="-67" y="-546" as="targetPoint" />
            <Array as="points">
              <mxPoint x="830" y="-1925" />
            </Array>
          </mxGeometry>
        </mxCell>
        <mxCell id="b-kxwEwmXriyLvLz8vZ1-52" value="" style="endArrow=none;startArrow=diamondThin;endFill=0;startFill=0;html=1;verticalAlign=bottom;labelBackgroundColor=none;strokeWidth=1;startSize=8;endSize=8;rounded=0;exitX=0.009;exitY=0.345;exitDx=0;exitDy=0;entryX=0.25;entryY=0;entryDx=0;entryDy=0;exitPerimeter=0;" edge="1" parent="1" source="tvtKjg2gaKu45afXB-1r-1" target="b-kxwEwmXriyLvLz8vZ1-10">
          <mxGeometry width="160" relative="1" as="geometry">
            <mxPoint x="1048" y="-1977" as="sourcePoint" />
            <mxPoint x="536" y="-1499" as="targetPoint" />
            <Array as="points">
              <mxPoint x="283" y="-1977" />
            </Array>
          </mxGeometry>
        </mxCell>
        <mxCell id="b-kxwEwmXriyLvLz8vZ1-53" value="" style="endArrow=none;startArrow=diamondThin;endFill=0;startFill=0;html=1;verticalAlign=bottom;labelBackgroundColor=none;strokeWidth=1;startSize=8;endSize=8;rounded=0;exitX=0.5;exitY=1;exitDx=0;exitDy=0;entryX=0.988;entryY=0.672;entryDx=0;entryDy=0;entryPerimeter=0;" edge="1" parent="1" source="8NUegigZWreO3T-o1tuZ-14" target="b-kxwEwmXriyLvLz8vZ1-10">
          <mxGeometry width="160" relative="1" as="geometry">
            <mxPoint x="1359" y="-610" as="sourcePoint" />
            <mxPoint x="608" y="-622" as="targetPoint" />
            <Array as="points">
              <mxPoint x="1957" y="-546" />
            </Array>
          </mxGeometry>
        </mxCell>
        <mxCell id="b-kxwEwmXriyLvLz8vZ1-54" value="" style="endArrow=none;startArrow=diamondThin;endFill=0;startFill=0;html=1;verticalAlign=bottom;labelBackgroundColor=none;strokeWidth=1;startSize=8;endSize=8;rounded=0;exitX=0.5;exitY=1;exitDx=0;exitDy=0;" edge="1" parent="1" source="8NUegigZWreO3T-o1tuZ-12">
          <mxGeometry width="160" relative="1" as="geometry">
            <mxPoint x="1967" y="-586" as="sourcePoint" />
            <mxPoint x="584" y="-542" as="targetPoint" />
            <Array as="points">
              <mxPoint x="2395" y="-545" />
            </Array>
          </mxGeometry>
        </mxCell>
        <mxCell id="b-kxwEwmXriyLvLz8vZ1-55" value="" style="endArrow=none;startArrow=diamondThin;endFill=0;startFill=0;html=1;verticalAlign=bottom;labelBackgroundColor=none;strokeWidth=1;startSize=8;endSize=8;rounded=0;entryX=1.003;entryY=0.671;entryDx=0;entryDy=0;entryPerimeter=0;exitX=0.5;exitY=1;exitDx=0;exitDy=0;" edge="1" parent="1" source="8NUegigZWreO3T-o1tuZ-27" target="b-kxwEwmXriyLvLz8vZ1-10">
          <mxGeometry width="160" relative="1" as="geometry">
            <mxPoint x="2903" y="-638" as="sourcePoint" />
            <mxPoint x="594" y="-532" as="targetPoint" />
            <Array as="points">
              <mxPoint x="2916" y="-546" />
            </Array>
          </mxGeometry>
        </mxCell>
        <mxCell id="b-kxwEwmXriyLvLz8vZ1-56" value="" style="endArrow=none;startArrow=diamondThin;endFill=0;startFill=0;html=1;verticalAlign=bottom;labelBackgroundColor=none;strokeWidth=1;startSize=8;endSize=8;rounded=0;exitX=0.5;exitY=0;exitDx=0;exitDy=0;entryX=0.75;entryY=0;entryDx=0;entryDy=0;" edge="1" parent="1" source="8NUegigZWreO3T-o1tuZ-13" target="8NUegigZWreO3T-o1tuZ-17">
          <mxGeometry width="160" relative="1" as="geometry">
            <mxPoint x="1352" y="-1915" as="sourcePoint" />
            <mxPoint x="840" y="-1437" as="targetPoint" />
            <Array as="points">
              <mxPoint x="2415" y="-2246" />
              <mxPoint x="933" y="-2240" />
            </Array>
          </mxGeometry>
        </mxCell>
      </root>
    </mxGraphModel>
  </diagram>
</mxfile>
